<?xml version="1.0" standalone="no"?>
<!DOCTYPE svg PUBLIC "-//W3C//DTD SVG 20010904//EN"
        "http://www.w3.org/TR/2001/REC-SVG-20010904/DTD/svg10.dtd">
<svg version="1.0" xmlns="http://www.w3.org/2000/svg"
     width="1024.000000pt" height="1024.000000pt" viewBox="0 0 1024.000000 1024.000000"
     preserveAspectRatio="xMidYMid meet">
    <metadata>
        Created by potrace 1.14, written by Peter Selinger 2001-2017
    </metadata>
    <g transform="translate(0.000000,1024.000000) scale(0.100000,-0.100000)"
       fill="#000000" stroke="none">
        <path d="M0 9600 c0 -553 2 -641 15 -646 8 -3 17 -15 21 -26 3 -10 30 -35 59
-54 30 -18 56 -38 60 -44 3 -5 15 -10 25 -10 11 0 30 -11 44 -25 15 -15 31
-22 40 -19 9 3 16 1 16 -4 0 -6 10 -14 22 -18 13 -4 30 -14 38 -24 15 -16 90
-24 90 -9 0 13 54 -10 84 -36 16 -14 35 -25 43 -25 20 0 41 -23 58 -62 18 -45
46 -68 107 -90 49 -17 108 -61 108 -81 0 -5 8 -17 19 -26 26 -23 73 -120 67
-138 -3 -8 -1 -11 4 -8 6 3 10 1 10 -4 0 -6 -4 -11 -9 -11 -5 0 -19 -26 -32
-57 -40 -102 -72 -145 -144 -198 -50 -37 -64 -54 -65 -82 0 -12 -4 -25 -10
-28 -5 -3 -10 -10 -10 -14 0 -18 64 -70 93 -77 16 -3 52 -29 81 -57 61 -61
107 -94 143 -104 15 -3 36 -15 47 -25 11 -10 27 -18 35 -18 18 0 181 -135 181
-150 0 -6 6 -10 14 -10 19 0 90 -79 115 -128 20 -40 114 -132 134 -132 6 0 25
-15 42 -34 44 -49 91 -61 146 -39 26 10 72 17 111 17 55 1 72 -3 98 -23 21
-15 54 -26 94 -31 38 -5 78 -17 102 -32 21 -14 56 -28 77 -32 23 -4 43 -16 53
-32 28 -42 70 -67 93 -54 29 15 67 -24 83 -86 7 -27 18 -55 25 -61 6 -7 8 -23
5 -35 -5 -20 -7 -20 -10 -5 -4 18 -4 18 -17 0 -7 -10 -17 -18 -22 -18 -12 0
-61 -53 -68 -74 -3 -9 -17 -25 -31 -36 -14 -11 -39 -32 -57 -46 -43 -36 -101
-59 -147 -59 -20 0 -40 -3 -44 -7 -15 -16 -74 -29 -99 -22 -25 7 -87 -8 -87
-21 0 -16 -51 -7 -64 11 -8 12 -29 23 -51 26 -20 3 -61 16 -91 29 -69 30 -72
30 -113 -5 -18 -16 -58 -37 -88 -47 -72 -25 -81 -37 -50 -66 13 -13 36 -42 50
-65 14 -23 31 -44 37 -48 6 -3 8 -11 5 -16 -4 -5 2 -9 13 -9 23 0 53 -33 76
-82 22 -48 65 -69 179 -85 22 -3 52 -16 66 -29 14 -13 34 -24 43 -24 10 0 18
-4 18 -9 0 -4 11 -20 25 -36 14 -15 28 -40 32 -56 3 -16 16 -40 29 -54 13 -14
28 -34 33 -43 11 -21 107 -72 136 -72 32 0 43 -12 74 -81 31 -69 44 -135 25
-132 -7 1 -10 -6 -7 -17 4 -16 2 -19 -12 -14 -13 5 -16 3 -13 -7 3 -9 -7 -19
-25 -26 -20 -9 -27 -18 -23 -28 3 -9 2 -13 -4 -10 -6 3 -13 -1 -16 -9 -3 -9
-10 -14 -14 -11 -4 3 -10 -2 -14 -10 -3 -8 -14 -15 -25 -15 -11 0 -32 -6 -48
-14 -15 -8 -80 -29 -143 -47 -63 -18 -117 -37 -118 -41 -2 -5 -7 -6 -12 -3 -5
3 -7 -3 -6 -12 2 -10 -1 -21 -7 -24 -5 -4 -10 -20 -11 -36 -1 -16 -8 -36 -16
-44 -13 -14 -18 -14 -49 5 -30 18 -34 18 -28 3 6 -15 -2 -21 -24 -19 -3 1 -5
-7 -4 -17 1 -20 38 -75 77 -112 29 -29 62 -99 77 -164 5 -22 18 -74 29 -116
11 -42 18 -87 17 -100 -1 -13 -3 -35 -4 -50 0 -14 -17 -42 -36 -63 -19 -21
-37 -53 -41 -72 -6 -35 -90 -174 -104 -174 -5 0 -16 -8 -26 -17 -9 -10 -22
-18 -28 -19 -31 -6 -148 -67 -153 -80 -7 -20 -119 -95 -127 -86 -13 12 -44
-40 -37 -62 8 -29 44 -86 53 -86 4 0 8 -5 8 -11 0 -5 -4 -7 -10 -4 -5 3 -10
-3 -10 -14 0 -12 4 -21 9 -21 4 0 6 -16 4 -35 -4 -43 12 -77 35 -73 9 1 26 -3
37 -9 11 -6 23 -11 28 -11 43 1 99 -16 112 -35 11 -16 18 -18 26 -10 8 8 18 9
31 2 10 -5 18 -7 18 -4 0 3 11 -2 25 -11 18 -11 49 -16 117 -16 166 0 322 9
358 21 64 22 97 25 216 21 29 -1 60 2 70 8 11 5 27 8 37 6 19 -3 77 42 77 59
0 5 23 30 51 56 46 41 60 48 147 68 54 12 135 25 182 29 47 3 88 8 92 10 4 3
26 7 50 10 24 3 69 12 100 20 103 26 307 44 358 31 8 -2 31 -7 50 -11 19 -5
49 -19 67 -32 17 -13 35 -24 39 -24 4 0 13 -8 21 -18 8 -9 11 -11 7 -3 -5 9
-3 12 4 7 26 -16 25 -17 -143 -208 -19 -21 -38 -38 -44 -38 -6 0 -88 -13 -183
-30 -336 -57 -688 -148 -867 -224 -219 -94 -297 -124 -377 -150 -82 -26 -254
-67 -289 -68 -31 -1 -291 -65 -375 -91 -41 -14 -91 -28 -110 -32 -19 -4 -39
-11 -45 -15 -12 -9 -163 -56 -340 -106 -177 -50 -201 -58 -350 -114 -72 -26
-170 -61 -220 -75 -99 -30 -212 -79 -280 -122 l-44 -28 -1 -1323 0 -1322 2006
0 c1314 0 2003 4 1999 10 -9 14 9 12 23 -2 7 -7 12 -8 12 -2 -1 5 -21 25 -45
44 -24 19 -42 36 -40 38 4 4 69 -40 73 -50 2 -5 9 -8 15 -8 6 0 -14 22 -44 50
-30 27 -45 47 -34 43 18 -6 18 -5 6 10 -19 24 1 21 35 -4 21 -15 18 -11 -8 15
-47 45 -49 55 -5 25 l32 -22 -35 38 -35 38 30 -19 30 -18 -29 32 c-36 39 -26
41 23 6 l36 -26 -30 28 c-20 18 -26 29 -17 32 10 3 10 7 1 18 -9 11 -9 14 0
14 7 0 9 5 6 10 -3 6 -11 10 -16 10 -6 0 -7 -4 -4 -10 3 -5 1 -10 -6 -10 -8 0
-8 -4 1 -15 7 -8 8 -15 2 -15 -5 0 -15 6 -21 14 -9 11 -9 15 1 18 10 4 10 9
-2 24 -14 18 -14 18 3 5 24 -19 21 -2 -5 28 l-23 26 25 -21 c47 -39 55 -37 15
5 -44 46 -38 56 9 14 23 -22 22 -18 -7 15 -39 44 -49 66 -20 40 10 -8 25 -18
33 -22 13 -7 13 -6 0 6 -8 7 -24 24 -35 38 l-20 24 35 -24 35 -23 -29 30 c-21
24 -26 35 -18 48 6 12 11 14 16 6 4 -6 13 -11 19 -11 8 0 8 3 2 8 -5 4 -17 16
-25 26 -14 18 -13 19 5 12 17 -6 16 -3 -5 20 l-25 27 25 -13 25 -13 -24 27
c-16 17 -20 26 -11 26 11 0 11 3 2 12 -16 16 -15 31 1 22 9 -6 9 -4 0 7 -7 7
-13 17 -13 22 0 4 6 5 13 1 8 -6 8 -3 -1 9 -15 18 -24 69 -11 61 5 -3 9 0 9 5
0 6 -3 11 -8 11 -4 0 -13 10 -21 23 -13 20 -13 21 2 8 22 -18 22 -3 0 21 -16
18 -16 18 3 12 16 -6 16 -3 -6 22 -14 16 -18 23 -10 17 26 -24 34 -13 9 13
-23 25 -23 26 -2 15 34 -18 36 -13 6 14 -17 15 -23 24 -14 25 10 0 7 8 -10 26
-23 25 -23 26 -2 15 35 -18 35 -13 1 20 -23 21 -26 27 -11 20 34 -17 36 -13 6
15 -22 20 -24 24 -8 19 17 -5 16 -3 -5 21 l-25 26 24 -7 c21 -6 20 -3 -10 24
l-34 31 30 -10 30 -11 -30 25 c-26 22 -28 25 -10 26 19 1 18 2 -5 22 l-25 21
25 -6 25 -6 -27 24 c-18 15 -23 25 -15 29 8 3 6 10 -7 20 -20 16 -20 16 0 16
16 0 14 4 -11 26 -29 24 -29 25 -5 19 24 -6 24 -5 6 9 -11 9 -17 18 -14 21 3
3 22 -8 43 -25 59 -47 195 -73 215 -41 4 8 12 11 18 7 6 -3 14 -1 17 5 4 5 13
8 20 5 8 -3 16 0 18 7 3 9 8 9 19 -1 9 -7 20 -12 24 -11 16 4 104 -25 104 -33
0 -5 9 -4 19 2 23 12 42 13 23 1 -10 -6 -9 -11 4 -22 10 -8 15 -9 11 -3 -4 7
0 15 9 18 8 3 13 2 10 -3 -3 -5 1 -14 9 -21 13 -11 14 -10 8 5 -5 15 -3 17 11
12 10 -4 15 -3 11 3 -10 16 7 12 28 -8 18 -15 20 -15 14 -1 -4 12 -1 16 12 12
10 -2 25 2 33 11 9 8 18 12 22 9 3 -4 6 1 6 10 0 10 4 17 10 17 5 0 14 19 20
43 18 70 29 87 63 102 31 13 82 10 102 -6 6 -4 26 -8 45 -8 19 0 42 -1 50 -1
50 -3 77 14 103 66 9 16 40 53 71 81 30 28 52 54 48 57 -3 4 1 4 11 0 9 -3 17
-1 17 4 0 6 9 14 20 17 11 4 18 11 15 16 -4 5 -1 9 5 9 6 0 23 11 38 25 15 14
32 25 39 25 7 0 13 7 13 15 0 32 -35 17 -210 -86 -175 -104 -294 -153 -516
-213 -175 -48 -279 -69 -389 -80 -22 -2 -66 -11 -97 -20 -32 -10 -62 -15 -67
-12 -8 5 -58 154 -66 198 -2 10 -7 23 -11 29 -3 6 -8 32 -10 57 -2 26 -6 68
-8 95 -2 26 -3 47 -1 47 2 0 19 -25 37 -55 18 -30 36 -55 41 -55 4 0 5 5 1 11
-6 10 -43 145 -59 214 -22 92 -16 121 16 84 11 -12 22 -19 26 -16 3 4 3 7 -2
7 -4 0 -1 8 6 17 12 14 12 16 -1 9 -9 -4 -8 -1 3 7 9 8 17 20 17 26 0 7 4 9
10 6 9 -5 45 61 42 78 -1 4 5 7 13 7 9 0 15 9 15 25 0 14 5 25 11 25 8 0 9 4
0 13 -8 11 -5 16 14 25 14 6 25 17 25 24 0 6 12 24 26 39 22 23 24 28 11 40
-13 12 -12 19 4 52 11 20 15 37 9 37 -5 0 -10 5 -10 11 0 6 9 9 19 6 18 -4 61
27 50 37 -2 1 -13 9 -24 15 -14 9 -15 11 -3 7 20 -6 32 22 22 50 -4 10 -31 59
-62 107 -30 48 -52 91 -49 94 4 3 0 17 -7 32 -26 50 -94 266 -116 366 -11 55
-35 154 -52 220 -55 218 -69 318 -75 521 -4 151 -2 201 9 241 13 42 13 64 3
132 -6 44 -15 84 -19 88 -4 5 -139 8 -299 9 -189 0 -317 5 -362 13 -39 7 -125
12 -195 10 -259 -5 -274 -4 -312 19 -20 13 -47 36 -60 53 -12 17 -32 43 -44
57 -66 84 -86 178 -85 387 1 88 5 177 10 197 5 20 6 39 3 42 -3 4 0 6 6 6 6 0
10 12 10 28 -1 35 46 139 75 164 12 10 45 30 74 44 47 23 60 25 129 20 135
-11 238 -87 270 -199 9 -32 20 -60 24 -62 11 -7 491 -7 498 -1 3 3 -7 59 -21
124 -15 64 -30 134 -33 155 -4 21 -12 40 -18 42 -119 32 -165 70 -191 157 -18
64 -13 112 16 168 21 38 24 83 9 145 -5 22 -14 83 -20 135 -7 52 -27 140 -45
196 -38 116 -52 233 -59 470 -4 148 -3 164 15 193 11 18 28 35 39 38 10 3 21
12 25 21 5 14 7 14 15 2 5 -9 5 -19 -1 -26 -11 -13 -2 -44 13 -44 5 0 6 5 2
12 -4 7 -3 8 4 4 6 -4 9 -12 6 -19 -3 -8 10 -29 28 -48 27 -28 33 -31 36 -16
7 37 21 14 37 -60 75 -351 140 -505 243 -577 95 -65 272 -106 473 -107 79 -1
117 -5 106 -10 -9 -5 -39 -11 -68 -13 -29 -2 -58 -10 -67 -20 -14 -14 -13 -18
11 -40 22 -21 26 -31 21 -53 -7 -26 -6 -27 11 -13 11 9 16 10 11 3 -4 -8 -2
-13 5 -13 23 0 1 -73 -31 -103 -16 -15 -30 -34 -30 -41 0 -8 -7 -16 -15 -19
-20 -8 -58 -86 -52 -108 4 -13 -4 -24 -24 -36 -16 -10 -29 -22 -29 -29 0 -6
-8 -18 -19 -28 -16 -14 -17 -23 -9 -64 4 -26 6 -59 2 -74 -4 -22 -2 -28 11
-28 9 0 13 -4 10 -10 -3 -5 -1 -10 5 -10 7 0 10 -7 6 -15 -3 -10 1 -15 12 -15
24 0 44 -35 36 -66 -6 -23 -4 -25 17 -22 15 2 23 -2 22 -9 -3 -12 9 -17 29
-14 5 0 6 -9 5 -20 -2 -12 5 -38 15 -57 10 -20 18 -42 18 -49 0 -7 5 -13 11
-13 5 0 8 -4 5 -8 -6 -11 41 -38 50 -29 8 8 9 45 1 87 -7 41 -4 47 46 84 28
22 35 32 27 42 -19 22 -80 -4 -80 -35 0 -6 -6 -11 -14 -11 -22 0 -41 66 -37
130 1 19 75 100 90 100 6 0 11 6 11 13 0 6 14 26 30 44 17 18 30 36 30 40 0 5
22 28 50 52 27 24 50 50 50 57 0 8 5 14 11 14 5 0 7 5 4 10 -4 6 1 23 11 38
10 15 18 37 19 49 0 12 13 35 28 51 15 16 24 31 20 35 -3 4 -1 7 6 7 7 0 10 4
6 9 -3 5 0 13 6 17 7 4 10 3 7 -2 -3 -5 0 -15 8 -21 9 -9 15 -10 20 -2 3 6 1
15 -6 19 -7 4 -10 17 -7 29 3 12 1 24 -4 27 -6 4 -6 10 0 17 10 13 11 17 11
47 0 13 5 17 14 14 8 -3 17 3 20 14 6 19 16 32 72 94 13 15 24 30 24 33 0 3 9
18 20 33 44 59 190 503 190 576 0 28 -19 17 -40 -21 -11 -21 -19 -29 -16 -18
2 11 10 54 16 95 16 95 33 138 62 149 13 5 60 12 104 16 119 10 164 -20 166
-114 1 -17 5 -31 10 -31 4 0 8 -5 8 -11 0 -5 -4 -8 -9 -4 -21 13 -21 -39 0
-103 12 -37 24 -76 25 -87 4 -31 24 -83 65 -173 21 -45 40 -96 41 -113 1 -17
8 -35 15 -41 7 -6 13 -23 13 -39 0 -16 5 -29 10 -29 6 0 10 -6 11 -12 0 -7 27
-35 60 -63 103 -84 129 -152 76 -197 -39 -34 -122 -15 -161 37 -22 29 -33 35
-64 35 -21 0 -47 6 -57 14 -13 8 -44 14 -82 13 -54 -1 -63 -3 -72 -24 -6 -13
-16 -23 -23 -23 -7 0 -35 -23 -62 -50 -27 -28 -52 -50 -56 -50 -3 0 -4 -18 -2
-40 2 -22 1 -40 -3 -40 -3 0 -24 14 -45 31 -55 45 -113 54 -159 24 -20 -12
-46 -25 -57 -29 -12 -4 -24 -17 -26 -30 -6 -29 16 -61 35 -53 8 3 24 -3 36
-14 16 -15 21 -16 21 -5 0 11 8 12 34 6 18 -4 40 -11 47 -16 22 -13 112 -22
137 -13 27 10 28 23 2 49 -28 28 -26 46 3 28 12 -9 23 -25 25 -37 2 -11 12
-26 23 -31 18 -10 18 -12 2 -43 -19 -36 -26 -106 -13 -122 5 -6 11 -29 13 -50
4 -37 7 -40 36 -41 17 -1 31 3 31 7 0 5 19 13 42 19 24 7 53 22 64 34 20 21
26 22 68 12 31 -7 48 -17 52 -30 6 -18 7 -18 16 -1 7 12 7 20 -1 25 -19 11 15
33 44 27 17 -3 24 0 22 7 -3 6 -11 9 -18 8 -8 -2 -11 0 -7 3 4 4 3 15 -2 24
-13 26 21 45 46 26 15 -12 16 -16 5 -24 -9 -6 -10 -11 -2 -15 6 -4 11 -2 11 4
0 6 5 8 11 4 7 -4 9 0 5 13 -5 15 0 23 21 32 23 11 29 10 40 -5 7 -10 13 -13
13 -6 0 6 7 9 15 6 10 -4 15 0 15 14 0 28 26 48 43 33 8 -6 17 -8 20 -4 4 3 7
1 7 -5 0 -8 7 -9 25 -2 14 5 25 6 25 1 0 -5 25 -17 55 -26 43 -14 55 -22 56
-39 1 -11 2 -28 3 -36 1 -8 5 -21 9 -28 7 -10 3 -10 -17 0 -25 11 -25 12 -9
30 14 16 14 18 1 13 -15 -6 -44 -56 -30 -53 4 0 22 -5 40 -12 25 -9 31 -15 22
-24 -6 -6 -15 -12 -20 -12 -6 -1 -14 -2 -19 -3 -5 0 -8 -13 -6 -27 2 -21 -3
-28 -26 -36 -23 -8 -29 -16 -29 -40 0 -23 -4 -29 -15 -24 -8 3 -15 1 -15 -5 0
-6 -7 -8 -16 -5 -8 3 -13 2 -10 -3 7 -11 -182 -3 -205 10 -18 9 -117 7 -135
-3 -5 -3 -36 -13 -69 -23 -33 -9 -65 -21 -70 -25 -6 -5 -39 -8 -74 -7 -34 1
-65 -1 -67 -5 -3 -5 -15 -6 -27 -3 -29 7 -135 -8 -227 -33 -88 -23 -274 -39
-250 -22 12 9 10 10 -10 4 -28 -9 -46 -9 -106 -1 -37 5 -41 3 -37 -14 3 -10 9
-16 14 -13 5 3 9 -1 9 -9 0 -8 7 -20 15 -27 15 -12 102 -33 135 -31 44 1 130
10 166 16 26 5 72 1 128 -10 48 -10 102 -15 121 -12 19 3 35 1 37 -4 3 -10
214 -16 225 -6 3 4 19 7 35 7 15 0 28 5 28 12 0 8 3 9 10 2 6 -6 37 -7 82 -2
176 20 199 20 205 -3 4 -16 8 -18 14 -7 7 10 11 7 15 -9 7 -24 28 -31 39 -13
10 15 25 12 32 -7 10 -28 23 -32 52 -17 14 8 27 10 29 5 4 -13 40 -1 46 15 6
17 36 19 36 2 0 -6 8 -4 19 6 10 9 22 16 27 15 5 -1 12 0 17 1 12 4 26 7 37 9
6 0 10 8 10 16 0 8 3 15 8 16 4 0 15 2 25 4 10 2 17 -3 17 -12 0 -11 3 -13 13
-5 9 8 13 3 14 -19 2 -21 -1 -28 -10 -22 -7 4 -7 0 2 -10 12 -15 11 -20 -4
-37 -10 -11 -15 -20 -10 -20 4 0 0 -11 -9 -25 -9 -14 -13 -25 -9 -25 5 -1 -3
-7 -17 -15 -14 -8 -20 -15 -15 -15 6 0 4 -4 -3 -9 -12 -7 -19 -25 -21 -55 -1
-5 -8 -2 -18 5 -14 13 -16 11 -11 -12 4 -24 2 -27 -19 -24 -19 2 -24 -2 -20
-15 4 -14 -4 -17 -44 -17 -27 -1 -49 3 -49 9 0 5 -7 2 -16 -6 -8 -9 -20 -16
-26 -16 -5 0 -8 -7 -4 -15 3 -10 -1 -15 -12 -15 -10 0 -23 -5 -29 -11 -8 -8
-17 -8 -32 0 -24 13 -29 33 -6 25 8 -4 15 -10 15 -15 0 -4 7 -6 16 -2 14 5 10
11 -17 35 -25 23 -40 28 -61 24 -15 -3 -30 0 -34 6 -4 6 -3 8 3 5 6 -4 19 3
29 14 11 12 18 22 16 23 -9 4 12 36 23 36 18 0 15 38 -3 45 -8 3 -21 0 -29 -7
-12 -10 -18 -9 -29 7 -8 10 -14 25 -14 32 0 7 -4 13 -10 13 -5 0 -10 -5 -10
-11 0 -6 -11 -1 -25 12 -13 13 -25 30 -25 37 0 14 -34 8 -57 -10 -7 -6 -22 -8
-33 -5 -11 3 -18 1 -14 -4 3 -5 -2 -9 -10 -9 -9 0 -16 -3 -16 -8 0 -4 -21 -7
-47 -7 -53 0 -102 -12 -104 -26 -1 -5 -3 -13 -4 -19 -1 -5 -3 -16 -4 -22 -1
-8 -6 -5 -12 6 -9 15 -13 16 -20 5 -7 -11 -9 -10 -9 4 0 9 5 17 11 17 8 0 8 5
-1 15 -17 21 -30 9 -30 -26 0 -17 -4 -28 -9 -25 -5 4 -8 17 -7 31 2 13 -1 22
-5 19 -5 -3 -9 -14 -9 -25 0 -16 -6 -20 -27 -17 -20 2 -34 -4 -51 -24 -12 -15
-33 -28 -45 -30 -13 -2 -23 -11 -25 -23 -2 -15 8 -25 40 -40 54 -25 61 -54 19
-73 -26 -12 -28 -15 -17 -37 12 -26 41 -33 49 -12 4 9 6 9 6 -1 1 -7 5 -11 10
-8 5 3 11 -8 13 -25 3 -16 1 -32 -4 -35 -5 -3 -6 -9 -3 -14 3 -5 19 -1 36 7
26 13 35 13 55 3 13 -8 27 -10 31 -7 3 4 12 2 20 -4 9 -8 17 -8 26 -1 7 6 18
7 27 2 8 -5 22 -2 37 7 13 9 36 13 53 11 17 -3 33 -1 36 4 3 4 10 8 15 8 6 0
8 -4 5 -9 -3 -4 6 -13 21 -20 20 -9 28 -9 33 0 6 8 9 8 13 -2 4 -10 6 -10 6
-1 1 6 7 12 14 12 6 -1 2 -9 -10 -19 -30 -25 -29 -35 2 -27 15 4 34 0 48 -9
25 -16 39 -12 31 10 -4 9 3 12 19 11 21 -1 23 -4 14 -16 -6 -8 -8 -12 -3 -8 5
4 24 1 42 -7 20 -8 34 -10 34 -4 0 6 4 8 9 5 14 -9 32 20 24 39 -5 14 -3 16 7
10 10 -6 12 -4 7 8 -6 16 4 21 41 20 6 -1 12 3 12 8 0 5 8 9 18 9 11 0 13 -3
5 -8 -7 -4 -9 -13 -4 -21 5 -7 14 -10 20 -7 6 4 9 12 5 17 -3 6 2 17 12 24 17
13 17 16 4 25 -8 5 -10 10 -5 11 50 4 64 16 96 87 13 28 27 52 31 52 4 0 5 6
2 14 -3 7 9 25 27 40 37 31 49 23 44 -31 -3 -40 3 -45 43 -37 37 8 50 44 27
77 -19 28 -19 34 4 40 14 3 17 0 14 -13 -3 -9 3 -24 12 -34 19 -18 31 -20 40
-6 3 6 -2 10 -11 10 -14 0 -15 3 -7 11 9 9 20 9 43 -1 22 -9 27 -15 19 -21 -7
-4 -17 -5 -22 -2 -15 9 -3 -41 13 -55 13 -11 13 -11 -1 -7 -8 3 -24 -3 -34
-15 -10 -11 -13 -20 -8 -20 15 0 23 -38 9 -44 -6 -3 -2 -4 8 -3 10 1 21 -4 23
-10 3 -7 -1 -13 -9 -13 -10 0 -10 -2 -1 -8 6 -4 14 -20 17 -35 4 -24 2 -27
-15 -22 -13 5 -19 2 -19 -10 0 -12 5 -15 22 -10 16 6 20 4 15 -8 -3 -8 -1 -19
5 -25 13 -13 1 -33 -17 -30 -8 2 -14 -1 -14 -7 -1 -5 4 -11 9 -11 6 -1 13 -2
17 -3 4 0 -2 -8 -13 -17 -19 -15 -19 -16 1 -10 l20 6 -20 -16 c-20 -16 -20
-16 3 -11 14 3 22 1 22 -8 0 -7 5 -15 11 -17 7 -2 5 -9 -5 -17 -12 -10 -16
-11 -16 -1 0 10 -3 10 -15 0 -12 -10 -13 -16 -4 -27 7 -7 9 -16 6 -20 -4 -3
-2 -14 4 -24 7 -14 6 -19 -3 -19 -18 0 -47 20 -30 20 7 0 10 5 7 10 -7 12 -26
14 -24 2 3 -18 -3 -46 -8 -34 -5 14 -33 17 -33 3 0 -5 12 -14 28 -19 23 -9 24
-11 5 -11 -12 -1 -23 -6 -25 -12 -2 -7 -12 -7 -31 0 -22 8 -27 8 -27 -4 0 -9
6 -12 16 -8 15 5 33 -11 34 -29 0 -5 -14 -8 -31 -8 -22 0 -32 -5 -36 -19 -3
-13 -10 -18 -21 -14 -10 4 -13 2 -8 -5 3 -6 2 -13 -4 -17 -5 -3 -10 -1 -10 4
0 6 -7 11 -15 11 -10 0 -15 -10 -15 -28 0 -32 -31 -56 -61 -47 -14 5 -17 3
-13 -9 4 -12 2 -15 -9 -10 -8 3 -27 -6 -42 -20 -15 -14 -36 -26 -46 -26 -11 0
-19 -4 -19 -9 0 -5 -9 -12 -19 -16 -20 -6 -95 34 -102 54 -7 19 -33 16 -34 -4
0 -16 -7 -20 -37 -20 -20 0 -40 -3 -44 -8 -12 -12 -24 -8 -24 7 0 8 -8 16 -17
18 -22 4 -83 -14 -83 -24 0 -5 -11 -8 -24 -8 -37 0 -83 -19 -83 -35 0 -8 4
-15 9 -15 17 0 7 -16 -21 -35 -16 -10 -28 -22 -25 -26 2 -4 0 -10 -6 -14 -10
-6 -14 6 -10 38 1 18 0 18 -25 1 -19 -12 -25 -13 -23 -3 2 9 -7 12 -34 10 -21
-1 -38 2 -38 7 0 10 31 39 37 35 9 -7 23 -2 18 7 -6 10 -29 9 -99 -5 -27 -5
-40 -4 -46 5 -13 22 -30 1 -23 -30 4 -25 2 -30 -13 -30 -23 0 -46 -33 -38 -55
4 -10 0 -15 -14 -15 -11 0 -23 7 -26 16 -5 12 -8 13 -20 2 -8 -7 -11 -17 -7
-23 18 -28 -1 -65 -33 -65 -12 0 -26 -3 -30 -7 -4 -4 -22 -6 -41 -4 -32 2 -34
1 -29 -24 3 -19 1 -26 -8 -23 -18 6 -37 -22 -38 -54 0 -18 10 -34 30 -50 l29
-23 -24 0 c-14 0 -25 3 -25 8 0 4 -10 7 -22 7 l-21 0 21 -23 c12 -13 22 -29
22 -35 0 -7 11 -12 25 -12 23 0 24 -2 15 -21 -10 -17 -8 -21 8 -26 11 -2 25
-15 32 -28 7 -12 23 -28 36 -34 13 -6 24 -15 24 -20 0 -9 48 -26 64 -22 5 1 6
-5 3 -13 -4 -10 3 -17 23 -21 16 -3 30 -14 33 -26 3 -10 13 -22 24 -26 33 -12
73 -44 67 -54 -3 -6 3 -13 15 -16 12 -3 21 -9 21 -14 0 -5 7 -9 15 -9 9 0 12
-6 9 -15 -4 -9 0 -15 7 -15 12 0 12 -2 0 -9 -8 -5 -9 -11 -3 -15 6 -3 9 -18 6
-31 -3 -18 0 -25 11 -25 8 0 15 -9 15 -19 0 -11 9 -23 21 -26 14 -5 18 -10 11
-17 -11 -11 -4 -48 10 -48 5 0 5 -8 -1 -18 -7 -13 -7 -22 0 -29 8 -8 7 -13 0
-17 -18 -11 -13 -26 9 -26 13 0 20 -7 20 -20 0 -14 7 -20 21 -20 18 0 19 -3 9
-15 -13 -15 -13 -15 34 -29 9 -3 12 -13 9 -24 -3 -12 1 -22 11 -25 17 -7 30 8
21 23 -3 5 -2 10 4 10 17 0 24 -22 10 -31 -19 -13 7 -30 41 -27 14 1 34 -3 45
-9 11 -6 26 -8 33 -6 7 3 19 -1 27 -7 11 -9 23 -9 45 -2 16 6 30 8 30 5 0 -3
7 0 16 8 13 10 17 10 26 -2 8 -12 9 -11 5 2 -3 10 5 22 23 32 24 15 29 15 40
2 11 -14 7 -19 -12 -16 -5 0 -8 -5 -8 -13 0 -8 -8 -17 -18 -20 -22 -7 -24 -48
-2 -44 8 2 16 13 18 25 2 12 15 26 32 33 17 7 27 17 23 23 -3 5 -1 7 5 4 16
-10 41 3 36 18 -3 7 0 16 5 20 6 3 9 11 6 16 -4 5 0 10 7 10 7 1 24 2 38 4 14
1 41 11 60 23 19 12 51 30 70 39 19 10 40 25 47 33 15 19 17 6 2 -23 -9 -19
-7 -18 10 3 11 14 21 30 21 37 0 7 7 10 17 6 10 -4 14 -2 9 5 -3 6 -2 13 3 16
5 4 12 2 16 -4 4 -6 18 -1 36 12 33 25 38 43 9 35 -25 -6 -25 1 0 28 25 26 12
56 -13 30 -9 -9 -22 -13 -28 -10 -12 8 21 45 34 38 4 -2 7 2 7 9 0 8 9 21 20
31 11 9 20 23 20 31 0 8 6 17 13 19 6 3 4 6 -7 6 -18 1 -18 2 -2 20 10 11 15
25 11 31 -5 9 -1 10 16 5 21 -7 22 -6 10 9 -12 14 -10 16 16 16 18 0 41 10 57
25 34 31 35 53 1 31 -14 -9 -25 -12 -25 -7 0 6 11 22 25 37 14 15 25 33 25 40
0 8 5 14 12 14 6 0 3 9 -7 20 -16 18 -16 20 -2 20 10 0 17 4 17 9 0 6 9 8 20
6 11 -2 18 0 15 5 -7 11 35 35 55 31 10 -2 8 3 -5 13 -12 9 -14 14 -5 11 17
-6 50 41 50 72 0 24 35 63 56 63 9 0 14 6 11 13 -2 6 -12 11 -22 9 -14 -3 -15
-1 -4 11 7 8 21 12 30 10 9 -3 20 1 24 8 6 8 4 10 -5 4 -10 -6 -12 -4 -7 9 4
10 7 21 7 24 0 4 4 1 9 -6 6 -10 10 -8 14 8 5 18 2 21 -14 17 -10 -3 -22 -1
-25 4 -3 5 -2 9 3 8 21 -4 35 4 70 37 21 20 33 34 28 31 -6 -3 -16 3 -23 13
-9 15 -7 23 9 44 11 14 26 23 33 20 8 -3 17 -1 20 4 3 6 -1 12 -9 16 -12 4
-13 10 -3 30 6 14 15 23 19 20 5 -3 6 2 3 11 -4 8 0 23 7 32 13 15 12 15 -8 4
-27 -14 -30 -4 -6 15 17 13 17 14 -1 7 -13 -4 -17 -3 -12 5 4 7 16 12 27 12
10 0 18 3 18 8 -4 22 3 34 16 28 9 -3 15 0 15 8 0 8 6 17 12 20 11 5 11 7 1
12 -21 10 -14 33 11 40 25 6 45 34 24 34 -6 0 -5 6 3 17 9 11 10 14 2 9 -9 -5
-11 -2 -7 7 3 8 15 18 27 21 21 6 21 7 4 17 -15 9 -16 13 -5 26 7 9 12 17 10
17 -4 1 15 53 25 69 3 6 1 7 -5 3 -13 -8 -28 14 -15 23 9 5 26 57 21 63 -1 2
5 14 12 28 8 14 15 32 16 40 7 35 16 76 21 90 10 26 13 43 19 105 3 33 6 69 7
80 1 11 6 26 10 33 5 6 5 16 2 22 -3 5 -1 27 4 47 14 54 25 150 25 206 -1 26
3 47 7 47 5 0 3 11 -3 25 -6 14 -17 25 -25 25 -7 0 -16 7 -19 15 -8 20 -24 19
-40 -2 -11 -15 -13 -16 -14 -3 0 9 6 22 13 29 10 10 9 11 -5 6 -11 -4 -18 -2
-18 4 0 6 6 11 13 11 7 1 4 7 -7 15 -16 12 -17 17 -6 30 7 9 19 14 25 11 14
-5 8 31 -6 40 -15 9 -10 51 7 69 12 12 19 13 24 5 5 -8 9 -7 14 5 9 24 8 37
-3 31 -5 -4 -7 2 -4 13 3 11 -2 21 -10 24 -10 4 -13 13 -10 26 3 12 1 21 -6
21 -6 0 -11 7 -11 15 0 8 5 15 10 15 6 0 10 5 10 11 0 5 -4 7 -10 4 -16 -10
-12 5 12 38 12 18 18 29 14 25 -5 -4 -15 0 -24 9 -13 12 -13 19 -3 35 10 17 9
20 -8 25 -25 6 -26 16 -6 33 17 14 10 34 -8 23 -7 -3 -4 3 6 14 16 18 16 21 2
27 -9 3 -14 2 -11 -3 9 -13 -33 -21 -60 -11 -31 12 -30 1 0 -28 23 -21 25 -22
35 -5 10 17 10 17 11 1 0 -10 -4 -19 -10 -19 -5 -1 -14 -3 -20 -4 -5 -1 -16
-3 -22 -4 -9 -1 -7 -6 5 -15 22 -17 22 -25 -1 -19 -20 5 -25 31 -10 50 7 9 5
15 -7 19 -11 5 -21 1 -27 -10 -5 -9 -14 -13 -20 -10 -7 4 -8 2 -4 -5 4 -6 0
-14 -8 -17 -9 -3 -16 -14 -16 -23 -1 -14 -2 -14 -14 2 -16 20 -23 21 -29 5 -2
-7 -3 -5 -2 4 2 10 -1 21 -6 24 -5 3 -9 0 -9 -6 0 -7 -5 -10 -12 -8 -18 6 -48
-29 -42 -49 5 -15 4 -16 -5 -3 -7 10 -11 11 -11 3 0 -7 -6 -13 -14 -13 -8 0
-17 -6 -19 -12 -3 -8 -6 -6 -6 5 -1 9 4 17 9 17 6 0 10 5 10 10 0 7 -7 7 -17
2 -10 -4 -28 -7 -40 -7 -12 1 -24 -4 -28 -13 -3 -8 -13 -12 -24 -9 -14 3 -17
0 -14 -13 5 -18 -13 -37 -25 -25 -3 3 0 10 8 15 13 8 12 10 -2 10 -10 0 -18 5
-18 11 0 6 -16 9 -37 7 -22 -2 -37 -8 -36 -14 1 -8 -11 -10 -35 -8 -20 2 -31
1 -24 -2 17 -8 15 -25 -3 -18 -9 4 -15 0 -15 -10 0 -22 -13 -20 -28 4 -7 11
-8 20 -3 20 5 0 11 9 14 21 4 14 2 18 -6 11 -7 -5 -19 -10 -27 -10 -8 -1 -28
-4 -44 -8 -20 -5 -27 -4 -22 4 4 7 -2 13 -16 16 -13 3 -35 7 -50 11 -16 3 -28
1 -28 -4 0 -5 -9 -7 -20 -4 -12 3 -19 10 -17 16 2 6 -14 20 -35 30 -37 19 -48
39 -28 52 8 5 7 11 -1 21 -6 8 -8 14 -3 14 5 0 2 5 -6 10 -8 5 -16 21 -17 36
-2 20 1 24 9 16 9 -9 16 -8 29 4 16 14 55 26 89 27 8 0 18 4 21 9 3 4 29 14
57 20 49 12 56 17 50 36 -2 4 -59 8 -128 8 -243 3 -283 4 -279 9 3 2 64 7 135
10 200 8 410 52 527 112 97 49 166 133 196 238 6 22 21 101 32 175 11 74 23
153 26 175 3 22 13 45 21 51 8 6 13 18 9 27 -3 8 -3 18 1 21 3 4 7 26 8 50 1
37 -1 44 -15 39 -9 -2 2 12 23 31 44 41 53 42 122 21 27 -8 59 -15 71 -15 15
0 20 -5 16 -18 -3 -11 7 -31 26 -51 32 -34 35 -45 67 -231 24 -139 33 -170 50
-170 14 0 14 -32 -2 -107 -2 -13 6 -44 19 -70 14 -27 30 -65 37 -87 10 -30 21
-42 55 -57 59 -26 73 -61 51 -130 -10 -28 -15 -53 -13 -55 2 -2 19 7 39 21 50
34 83 111 83 195 -1 120 -54 216 -142 255 -38 16 -40 27 -13 65 21 30 84 47
106 29 7 -6 21 -34 30 -62 9 -29 27 -74 39 -102 13 -27 26 -73 30 -102 6 -49
34 -107 35 -74 0 8 6 22 13 30 7 9 22 50 32 91 10 41 22 82 26 90 11 21 39
265 39 339 0 34 -5 71 -10 82 -21 39 -91 15 -179 -62 -24 -21 -52 -39 -62 -39
-10 0 -26 -14 -36 -30 -9 -17 -25 -33 -35 -36 -16 -5 -22 -16 -19 -36 0 -4 -8
-12 -19 -18 -24 -13 -26 -3 -3 22 14 16 14 18 0 18 -19 0 -29 27 -21 60 7 33
11 60 13 88 1 20 6 23 34 21 26 -3 45 6 94 43 l60 47 7 81 c4 45 12 80 18 80
6 0 8 12 5 30 -4 16 -2 32 3 35 6 3 11 -2 11 -12 1 -10 5 9 9 42 5 33 4 68 -1
77 -5 10 -5 27 1 42 5 14 12 55 16 91 4 36 11 68 15 71 5 3 9 31 10 62 0 31 4
66 8 77 5 11 4 33 -2 48 -6 19 -6 36 0 50 6 12 7 30 4 40 -8 23 7 208 18 222
19 23 11 139 -14 205 -13 36 -26 90 -28 120 -2 30 -11 72 -20 92 -9 21 -24 64
-33 95 -29 99 -51 138 -135 243 -98 122 -140 180 -173 242 -14 26 -35 53 -47
62 -12 8 -27 25 -33 38 -19 39 -186 138 -281 167 -22 7 -54 19 -72 27 -36 16
-67 18 -58 4 8 -12 -5 -13 -24 -1 -7 5 -10 14 -7 20 4 6 -3 15 -17 20 -14 6
-28 15 -32 21 -8 12 60 -14 81 -31 7 -6 20 -9 30 -7 12 2 8 11 -20 40 -20 20
-36 35 -36 33 0 -1 -22 5 -48 15 -29 11 -62 17 -82 14 -22 -4 -30 -2 -25 5 8
14 -17 10 -27 -4 -4 -6 -20 3 -38 20 -16 16 -30 23 -30 17 0 -10 -5 -10 -21
-1 -16 8 -18 13 -9 19 8 5 3 9 -15 12 -19 4 -25 2 -21 -8 4 -10 -5 -14 -32
-15 l-37 -1 35 -8 c19 -4 46 -12 60 -18 l25 -10 -26 -7 c-17 -4 -38 -1 -58 10
-17 9 -36 13 -40 10 -13 -7 -42 5 -36 16 8 12 -22 17 -140 24 -111 7 -149 19
-100 31 16 4 48 2 71 -4 44 -12 78 -7 68 9 -8 14 35 10 114 -10 39 -11 72 -16
72 -13 0 13 -85 42 -120 42 -19 0 -42 4 -50 10 -8 5 -17 5 -20 0 -3 -4 -24 -5
-48 0 -23 4 -42 4 -42 0 0 -4 -33 -8 -72 -9 -54 -1 -69 1 -58 9 11 8 8 9 -15
4 -32 -7 -58 -24 -37 -24 7 0 12 -4 12 -10 0 -5 -11 -10 -25 -10 -25 0 -37 20
-12 20 7 0 6 4 -4 10 -9 5 -31 5 -55 0 -50 -12 -56 -12 -49 0 8 13 5 12 -33
-1 -18 -6 -30 -14 -27 -19 6 -9 -30 -20 -65 -19 -23 0 -23 1 -5 8 11 5 23 7
26 5 4 -2 12 3 19 11 10 12 9 15 -6 15 -18 1 -18 1 0 15 11 8 16 16 10 16 -5
1 -19 3 -30 4 -12 1 -26 5 -33 9 -6 4 -11 3 -11 -2 0 -6 -7 -13 -16 -16 -12
-5 -15 -2 -10 10 5 14 2 15 -21 9 -16 -5 -46 -9 -68 -11 -22 -2 -53 -5 -70 -7
-16 -2 -36 -5 -42 -5 -7 -1 -12 -8 -10 -14 1 -8 -6 -12 -16 -10 -11 2 -28 -4
-38 -14 -16 -14 -23 -15 -42 -6 -18 10 -51 15 -129 21 -13 1 -9 18 5 18 6 0
27 3 46 8 23 5 31 4 27 -4 -4 -7 0 -11 11 -11 11 0 24 -5 31 -12 8 -8 18 -9
34 -1 13 6 46 21 73 32 44 19 46 22 17 18 -34 -4 -32 7 3 16 11 3 -4 3 -33 1
-29 -3 -62 -10 -71 -16 -10 -6 -26 -8 -36 -4 -17 6 -17 7 1 21 18 14 18 14 -7
15 -37 0 -90 -19 -116 -42 -16 -15 -41 -21 -100 -25 -81 -6 -184 -44 -254 -94
l-32 -22 16 24 c10 14 46 36 87 53 45 18 67 32 59 37 -8 5 -4 9 12 12 19 3 18
5 -8 6 -18 0 -33 -3 -33 -7 0 -5 -7 -9 -15 -9 -8 0 -15 4 -15 9 0 4 -4 8 -10
8 -5 0 -10 -9 -10 -20 0 -13 -10 -22 -32 -28 -18 -6 -42 -13 -53 -17 -11 -3
-7 1 8 10 49 28 22 28 -37 0 -31 -14 -60 -24 -65 -21 -5 4 -13 1 -17 -5 -5 -8
-2 -10 7 -5 8 4 3 -2 -11 -13 -14 -11 -41 -28 -60 -37 -19 -9 -40 -23 -47 -31
-6 -8 -17 -15 -25 -17 -7 -1 -18 -5 -25 -9 -7 -4 -25 -4 -40 0 l-28 7 35 6
c24 3 38 12 45 28 5 12 14 22 20 22 5 0 19 8 30 16 19 15 19 15 -10 8 -16 -4
-57 -19 -90 -34 -39 -18 -62 -24 -67 -18 -4 7 -20 4 -47 -9 -22 -11 -38 -16
-35 -12 7 12 -3 11 -28 -2 -15 -8 -19 -8 -14 0 4 6 5 11 1 11 -11 0 -50 -25
-58 -37 -4 -7 -15 -9 -23 -6 -9 3 -19 2 -23 -3 -10 -15 -63 -54 -73 -54 -5 0
-4 9 2 19 14 27 13 41 -5 41 -25 0 -17 18 15 35 17 9 30 20 30 26 0 8 4 8 13
1 9 -8 17 -4 32 18 17 25 74 52 58 27 -10 -16 59 4 92 26 17 12 40 31 52 44
l22 23 -28 0 c-39 0 -133 -29 -154 -48 -10 -9 -24 -17 -32 -19 -8 -2 -22 -4
-30 -6 -8 -2 -21 -9 -27 -15 -7 -7 -18 -12 -26 -12 -7 0 -10 -4 -7 -10 3 -5 2
-10 -4 -10 -5 0 -11 5 -13 12 -3 7 -15 -9 -28 -35 -13 -26 -28 -47 -33 -47 -6
0 -19 -8 -30 -17 -17 -15 -16 -11 4 17 13 19 34 48 47 64 28 35 23 41 -23 26
-24 -8 -44 -25 -62 -53 -31 -50 -61 -76 -87 -77 -11 0 -28 -8 -38 -17 -58 -53
-78 -77 -78 -93 0 -10 -6 -23 -14 -29 -8 -7 -14 -27 -14 -46 0 -35 6 -42 23
-27 6 4 -3 -6 -18 -22 -34 -35 -71 -86 -63 -86 3 0 -12 -18 -33 -41 -22 -22
-41 -50 -43 -62 -2 -12 -10 -22 -19 -22 -9 0 -37 -21 -63 -47 -37 -36 -48 -54
-50 -84 -3 -37 -18 -53 -61 -64 -11 -3 -21 -16 -23 -29 -3 -19 0 -22 14 -17
14 5 15 4 5 -8 -10 -11 -8 -17 6 -26 15 -10 13 -10 -14 -6 -20 3 -35 0 -43 -9
-19 -23 -31 -18 -21 9 7 17 5 28 -7 41 -16 17 -16 17 5 12 22 -5 54 18 34 25
-5 1 13 32 39 68 27 35 47 66 45 68 -1 2 13 18 32 36 33 30 34 33 19 48 -15
16 -14 18 11 30 16 7 28 20 28 27 0 8 6 16 13 19 7 2 10 -2 6 -12 -3 -9 -1
-16 4 -16 6 0 14 10 17 21 5 16 9 18 15 9 5 -7 6 -19 3 -27 -3 -7 0 -13 7 -13
9 0 11 12 7 43 -5 31 -4 36 3 20 11 -28 20 -30 13 -4 -3 10 0 22 6 25 6 4 11
2 11 -4 0 -6 7 -4 17 5 9 10 12 20 7 23 -11 8 -12 27 -1 38 4 4 7 -3 7 -16 l0
-23 25 25 c17 17 24 34 22 55 -1 17 -4 30 -7 28 -3 -2 -7 18 -8 43 -1 33 1 43
8 32 7 -12 13 -12 27 -4 10 6 18 17 18 25 0 18 36 59 47 53 4 -3 8 3 8 12 0
20 33 65 104 142 28 30 50 61 50 69 -1 8 1 12 4 8 3 -3 27 15 53 41 32 32 53
45 64 40 9 -3 13 -2 10 4 -3 5 23 25 57 45 35 20 77 50 95 67 21 21 31 25 29
14 -1 -9 -11 -23 -22 -31 -10 -8 -15 -15 -11 -15 17 0 66 31 84 53 10 14 34
32 53 42 46 24 98 63 132 100 15 17 28 25 28 18 0 -6 -5 -15 -10 -18 -6 -4 -8
-10 -5 -15 3 -4 -16 -22 -42 -39 -27 -16 -68 -47 -91 -68 l-44 -39 43 -1 c26
-1 38 1 31 6 -10 6 -7 12 12 24 14 10 29 17 33 17 3 0 18 10 32 23 l25 22 -22
-29 c-25 -32 -22 -48 3 -22 17 17 28 19 86 16 21 -1 53 8 75 19 21 12 46 21
54 21 21 -1 -30 -39 -52 -40 -10 0 -47 -13 -81 -30 -35 -16 -68 -30 -74 -30
-5 0 -23 -6 -39 -14 -16 -8 -41 -19 -56 -25 -16 -6 -28 -15 -28 -21 0 -5 -5
-10 -11 -10 -6 0 -22 -9 -36 -20 -33 -26 -20 -25 34 1 63 31 63 18 0 -14 -29
-15 -64 -38 -77 -52 l-24 -26 34 15 c22 9 52 12 81 9 38 -4 57 0 95 20 27 14
73 36 101 48 29 12 50 25 47 30 -3 5 8 7 25 5 20 -2 28 1 24 10 -2 6 5 15 16
19 12 3 21 11 21 16 0 5 12 9 28 10 23 0 24 2 7 8 -16 7 -14 9 15 16 19 4 42
9 51 10 9 1 43 17 75 36 33 18 65 32 72 31 7 -2 11 3 10 10 -2 6 4 12 12 13
20 1 157 71 165 85 4 6 -7 31 -24 57 -32 48 -39 73 -20 73 5 0 7 5 3 12 -5 7
-2 9 7 6 8 -3 20 1 27 9 11 12 10 13 -11 8 -15 -4 -28 -2 -32 6 -5 7 -4 10 3
5 6 -3 13 -2 17 4 4 7 -801 10 -2449 10 l-2456 0 0 -640z m4500 445 c-36 -7
-90 -22 -120 -34 -60 -23 -86 -27 -55 -9 34 20 168 57 205 57 26 -1 18 -4 -30
-14z m-70 -95 c0 -9 -6 -11 -25 -10 -3 1 -13 -6 -21 -15 -14 -14 -34 -20 -34
-11 0 6 63 46 73 46 4 0 7 -4 7 -10z m197 -6 c-3 -4 -28 -8 -54 -10 -32 -2
-43 0 -33 6 17 11 97 14 87 4z m-142 -64 c-3 -5 -12 -10 -18 -10 -7 0 -6 4 3
10 19 12 23 12 15 0z m-375 -5 c0 -2 -10 -9 -22 -15 -22 -11 -22 -10 -4 4 21
17 26 19 26 11z m338 -17 c-2 -7 5 -12 14 -10 9 1 19 -2 23 -8 4 -6 -4 -10
-18 -10 -24 0 -42 21 -30 34 10 9 13 7 11 -6z m-94 -43 c-44 -19 -94 -30 -74
-16 8 6 11 11 5 12 -9 2 63 15 90 17 6 0 -4 -6 -21 -13z m-691 -104 c-15 -22
-30 -38 -32 -36 -6 7 40 75 50 75 6 0 -2 -18 -18 -39z m540 -8 c-7 -2 -19 -2
-25 0 -7 3 -2 5 12 5 14 0 19 -2 13 -5z m937 -28 c-14 -8 -29 -14 -35 -14 -5
0 1 6 15 14 14 8 30 14 35 14 6 0 -1 -6 -15 -14z m830 -45 c0 -13 -11 -13 -30
0 -12 8 -11 10 8 10 12 0 22 -4 22 -10z m-2376 -34 c-3 -9 -10 -16 -15 -16 -5
0 -4 9 3 20 14 22 21 20 12 -4z m1483 9 c0 -8 -4 -12 -9 -9 -5 3 -6 10 -3 15
9 13 12 11 12 -6z m193 5 c0 -5 -8 -10 -17 -10 -15 0 -16 2 -3 10 19 12 20 12
20 0z m130 0 c0 -5 -10 -10 -22 -10 -19 0 -20 2 -8 10 19 13 30 13 30 0z
m-1420 -14 c0 -2 -8 -10 -17 -17 -16 -13 -17 -12 -4 4 13 16 21 21 21 13z
m535 -16 c-3 -5 -11 -10 -16 -10 -6 0 -7 5 -4 10 3 6 11 10 16 10 6 0 7 -4 4
-10z m905 6 c0 -3 -4 -8 -10 -11 -5 -3 -10 -1 -10 4 0 6 5 11 10 11 6 0 10 -2
10 -4z m647 -12 c-3 -3 -12 -4 -19 -1 -8 3 -5 6 6 6 11 1 17 -2 13 -5z m-1038
-7 c-2 -2 -22 -16 -44 -32 -22 -16 -34 -21 -26 -12 12 15 11 17 -5 17 -14 0
-15 3 -6 12 10 10 14 10 21 0 6 -10 10 -10 21 3 7 8 19 15 28 15 8 0 13 -1 11
-3z m-168 -67 c-19 -16 -37 -28 -39 -25 -6 6 51 54 63 54 6 0 -5 -13 -24 -29z
m1289 22 c0 -4 -24 -12 -54 -18 -41 -7 -59 -7 -72 3 -14 10 -5 13 52 16 38 1
70 4 72 5 1 1 2 -2 2 -6z m-273 -58 c-3 -3 -12 -4 -19 -1 -8 3 -5 6 6 6 11 1
17 -2 13 -5z m-2427 -44 c-16 -31 -24 -131 -11 -139 7 -4 -6 -23 -31 -47 -24
-21 -33 -28 -22 -14 18 21 41 120 28 120 -2 0 -11 -12 -19 -27 -17 -29 -16
-25 17 72 25 74 28 79 40 67 6 -6 6 -18 -2 -32z m193 -45 c-3 -9 -8 -14 -10
-11 -3 3 -2 9 2 15 9 16 15 13 8 -4z m1282 -35 c-1 -16 2 -30 7 -30 4 0 8 -9
8 -20 0 -37 -30 -18 -45 28 -4 13 -2 29 5 37 19 23 27 18 25 -15z m35 10 c0
-5 -5 -10 -11 -10 -5 0 -7 5 -4 10 3 6 8 10 11 10 2 0 4 -4 4 -10z m1722 -60
c10 0 10 -2 0 -8 -9 -6 -5 -12 15 -22 15 -7 35 -14 43 -14 8 -1 14 -7 13 -13
-2 -7 0 -12 5 -11 10 3 52 -20 84 -47 25 -22 26 -23 7 -28 -13 -4 -24 1 -32
14 -6 10 -18 19 -26 19 -8 0 -4 -8 10 -20 28 -23 14 -27 -16 -4 -11 8 -20 23
-20 32 0 10 -8 16 -18 16 -10 -1 -16 0 -13 3 3 3 -14 15 -37 27 -23 13 -42 29
-42 37 0 8 -14 21 -31 30 -43 21 -68 46 -51 52 6 2 31 -11 54 -29 23 -19 47
-34 55 -34z m-1812 39 c0 -12 4 -17 11 -13 8 4 9 -1 4 -16 -13 -42 -22 -129
-13 -142 5 -9 8 -3 8 15 0 15 6 27 13 28 9 0 9 2 -1 6 -10 4 -9 8 5 19 15 11
15 15 5 23 -8 4 -12 17 -9 27 4 17 6 16 12 -4 6 -17 13 -22 26 -19 11 3 19 1
19 -4 0 -5 -7 -9 -16 -9 -9 0 -12 -5 -8 -12 4 -7 9 -28 11 -48 9 -95 25 -134
77 -182 28 -26 56 -47 61 -47 6 0 0 8 -12 18 -13 11 -23 26 -23 35 0 9 -7 16
-15 16 -8 0 -19 9 -25 20 -6 11 -16 17 -22 14 -7 -4 -8 -3 -4 4 4 6 2 21 -5
33 -8 15 -8 19 0 15 7 -5 11 2 11 16 0 18 -2 20 -10 8 -8 -13 -10 -12 -10 3 0
9 7 17 16 17 8 0 12 5 9 10 -4 6 -11 8 -16 5 -5 -4 -9 -2 -9 4 0 5 9 13 20 16
11 3 20 13 20 21 0 8 4 14 9 14 5 0 6 -30 4 -67 -3 -38 -2 -65 2 -61 5 4 14 3
20 -2 9 -8 11 -4 8 13 -4 19 4 31 35 55 22 18 42 32 45 32 4 0 -3 -19 -13 -42
-22 -48 -26 -103 -8 -114 8 -5 9 5 4 37 -4 24 -4 40 0 36 4 -4 15 5 25 20 l18
27 7 -55 7 -54 14 30 14 30 -5 -33 c-7 -44 2 -82 21 -82 10 0 12 8 7 34 -3 20
-1 42 6 53 10 16 11 16 7 -4 -3 -13 -1 -23 4 -23 5 0 9 5 9 11 0 5 5 7 11 3 7
-4 9 0 5 12 -3 11 -1 26 4 34 9 13 10 13 11 0 3 -24 5 -33 17 -76 7 -23 9 -50
5 -60 -4 -12 -3 -15 5 -10 7 4 12 1 12 -7 0 -22 36 -62 43 -49 4 6 2 16 -5 24
-16 16 -23 68 -9 68 5 0 16 -8 23 -18 7 -9 27 -26 43 -36 29 -19 30 -19 13 0
-24 28 -26 59 -4 83 24 26 36 27 36 1 0 -28 19 -25 30 6 6 14 14 22 20 19 5
-3 10 1 10 9 0 9 2 16 4 16 2 0 12 3 22 7 13 5 15 3 9 -8 -5 -8 2 -5 15 6 l23
20 -8 -25 c-13 -41 -14 -101 -1 -97 13 4 46 -31 45 -47 0 -6 -3 -6 -6 2 -2 6
-9 12 -14 12 -14 0 -5 -53 9 -58 7 -2 10 2 6 12 -3 9 -1 16 5 16 6 0 11 -7 11
-15 0 -8 4 -15 8 -15 5 0 26 -16 46 -36 28 -27 48 -37 79 -40 58 -6 77 -13 77
-30 0 -8 5 -12 10 -9 6 4 18 1 26 -6 12 -10 13 -9 8 5 -4 11 -1 16 13 16 21 0
63 -34 63 -51 0 -16 24 -36 38 -31 6 2 12 -4 12 -14 0 -9 3 -14 7 -11 3 4 12
2 20 -5 11 -9 12 -7 7 7 -6 14 -4 16 6 10 10 -6 12 -4 7 8 -3 10 -2 17 3 17 6
0 10 -4 10 -10 0 -20 42 -52 61 -47 10 3 19 1 19 -4 0 -5 13 -9 28 -9 16 0 35
-6 44 -12 24 -19 68 -107 68 -136 0 -14 9 -36 21 -48 l20 -21 -20 -6 c-12 -3
-19 -2 -17 2 3 4 1 13 -5 21 -7 12 -9 11 -10 -5 0 -11 -2 -29 -4 -40 -2 -10 0
-25 6 -31 5 -6 6 -19 3 -29 -4 -10 -1 -20 6 -25 18 -11 3 -30 -18 -23 -15 6
-16 5 -2 -13 8 -10 22 -25 30 -32 11 -10 12 -15 3 -18 -15 -7 -17 -34 -3 -34
6 0 10 5 10 11 0 8 4 8 14 -1 10 -7 12 -18 7 -32 -5 -15 -2 -27 10 -39 10 -10
15 -26 12 -37 -2 -11 0 -23 6 -26 5 -4 8 -13 4 -21 -3 -9 1 -15 10 -15 8 0 18
-6 21 -12 3 -7 4 -4 3 7 -1 13 8 24 28 34 16 8 36 20 43 28 11 11 10 13 -10
13 -17 0 -19 3 -9 9 7 5 10 14 6 21 -6 9 -3 9 13 1 11 -6 23 -20 27 -31 7 -21
-17 -65 -28 -53 -4 3 -7 2 -7 -3 0 -6 5 -15 12 -22 7 -7 8 -12 2 -12 -5 0 2
-6 16 -13 13 -7 30 -23 36 -36 12 -24 12 -24 25 -3 12 19 14 19 25 4 9 -13 10
-20 1 -31 -10 -11 -8 -13 13 -6 24 7 24 7 5 -9 -20 -15 -20 -15 4 -16 l24 0
-23 -25 c-13 -13 -32 -27 -43 -31 -15 -5 -17 -8 -6 -15 9 -5 22 0 38 14 22 20
21 17 -5 -18 -22 -31 -24 -36 -6 -21 17 14 22 16 22 5 1 -8 11 -1 26 16 25 29
25 29 19 5 -7 -24 -6 -24 7 -6 11 13 17 16 22 7 4 -6 12 -9 17 -6 5 4 9 -3 9
-15 0 -12 7 -28 15 -36 8 -8 12 -21 9 -28 -3 -8 4 -32 15 -55 12 -22 21 -49
21 -60 0 -25 87 -213 103 -223 6 -4 14 -2 18 3 3 6 12 -18 19 -53 17 -87 20
-98 29 -98 5 0 6 -12 3 -26 -2 -14 -10 -23 -16 -21 -88 34 -183 57 -215 51
-33 -6 -34 -5 -17 8 18 14 17 16 -25 22 -43 6 -261 26 -287 26 -7 0 -10 5 -6
11 4 6 20 8 40 4 44 -8 44 0 -1 15 -31 10 -41 9 -83 -12 -39 -19 -66 -24 -166
-26 -76 -3 -122 0 -129 7 -8 8 -8 11 1 11 6 0 20 9 31 21 11 12 24 18 30 14 6
-3 11 -2 11 3 0 5 20 18 45 29 l45 19 -83 1 c-87 1 -152 23 -152 53 0 9 -11
16 -29 18 -18 2 -26 0 -21 -7 3 -6 3 -11 -2 -11 -4 0 -19 -3 -33 -5 l-25 -6
25 12 25 12 -23 4 c-12 3 -29 -2 -37 -11 -16 -15 -37 -13 -64 8 -12 9 -13 8
-8 -6 5 -15 1 -17 -37 -12 -25 4 -60 1 -82 -6 -21 -7 -60 -12 -87 -11 -34 1
-56 -4 -76 -18 -16 -11 -31 -18 -34 -14 -4 3 -13 0 -21 -6 -8 -7 -24 -10 -36
-6 -14 5 -20 2 -20 -9 0 -9 -8 -16 -17 -16 -12 0 -14 -3 -6 -8 8 -5 8 -13 -3
-32 l-14 -25 -6 23 c-8 28 -17 28 -34 -2 -15 -28 -46 -39 -72 -25 -16 9 -22 5
-20 -12 1 -4 -14 -5 -32 -2 -26 3 -35 0 -44 -19 -12 -22 -12 -22 -7 5 5 24 4
26 -8 16 -8 -7 -13 -24 -11 -37 2 -17 -2 -22 -12 -18 -17 6 -18 1 -3 -26 8
-15 8 -19 0 -14 -6 4 -11 2 -11 -4 0 -6 6 -13 14 -16 8 -3 16 -14 19 -25 3
-11 14 -19 25 -19 11 0 22 -8 25 -19 6 -24 -4 -27 -168 -41 -176 -15 -240 -15
-265 3 l-22 15 21 11 c12 7 21 17 21 24 0 13 85 71 95 65 10 -4 34 45 28 55
-3 5 -9 4 -13 -3 -6 -9 -15 -8 -39 4 -17 9 -31 21 -31 26 0 6 -5 10 -11 10 -5
0 -7 -4 -4 -10 3 -5 1 -10 -4 -10 -6 0 -11 8 -12 18 0 9 -3 12 -5 5 -9 -21
-32 -3 -40 30 l-6 30 -18 -23 c-11 -15 -22 -20 -30 -15 -9 5 -11 4 -6 -3 4 -7
3 -12 -2 -12 -6 0 -13 7 -16 16 -3 8 -10 13 -14 10 -5 -3 -14 6 -20 19 -8 17
-8 25 -1 25 6 0 7 5 3 11 -4 8 -11 4 -19 -10 l-12 -23 -16 24 c-15 21 -16 21
-14 3 1 -11 6 -26 10 -32 18 -29 -14 -10 -40 23 -16 21 -29 31 -31 24 -3 -7 1
-16 9 -20 7 -5 13 -18 14 -31 2 -19 -1 -18 -26 12 -16 19 -29 29 -29 23 0 -5
5 -15 12 -22 23 -23 -10 -13 -40 13 -17 14 -36 25 -43 25 -8 0 -23 7 -33 15
-11 8 -27 15 -35 15 -11 0 -10 -4 5 -15 24 -18 11 -19 -50 0 -47 14 -96 12
-96 -5 0 -5 -10 -6 -22 -3 l-23 5 21 -19 c12 -10 30 -24 40 -31 11 -7 14 -10
7 -7 -24 11 -115 25 -125 19 -6 -4 2 -13 18 -21 16 -7 21 -11 12 -9 -9 3 -34
7 -55 10 l-38 6 40 -20 c23 -11 55 -18 77 -16 20 1 35 -1 32 -6 -3 -4 -2 -8 3
-9 32 -3 50 -11 72 -34 18 -18 21 -24 8 -19 -13 5 -16 2 -11 -10 3 -9 14 -16
23 -17 10 0 11 -2 4 -6 -7 -2 -13 -11 -13 -19 0 -8 -6 -14 -12 -14 -206 -4
-686 -57 -867 -96 -20 -4 -23 -3 -11 5 12 8 14 32 13 113 -2 126 -2 121 2 188
2 30 6 93 8 140 3 47 10 105 16 130 5 25 14 65 19 90 30 144 112 348 181 449
34 51 101 181 101 197 0 8 5 14 10 14 6 0 10 11 10 24 0 13 7 37 15 53 8 15
25 56 39 91 29 77 84 151 111 152 17 0 17 2 5 10 -13 8 -12 10 3 10 10 0 20 7
23 15 6 15 42 31 59 26 6 -1 4 3 -3 10 -10 11 -8 16 10 26 14 7 17 12 9 13
-11 0 -9 4 5 14 10 8 19 20 19 27 0 14 48 28 81 23 19 -3 19 -3 0 12 -18 13
-18 14 -2 14 13 0 16 5 12 16 -6 14 -1 16 35 10 26 -4 38 -3 34 4 -3 5 -1 10
5 10 6 0 9 4 5 10 -3 5 12 14 33 21 26 7 39 17 38 28 0 9 5 15 12 13 6 -1 12
3 12 9 0 15 43 7 58 -11 10 -13 11 -10 6 14 -6 25 -4 28 10 23 10 -4 16 -1 16
8 0 8 5 15 11 15 6 0 8 9 4 23 -6 21 -6 21 9 3 15 -19 16 -19 16 7 0 15 5 27
10 27 6 0 10 9 10 20 0 11 2 20 4 20 2 0 11 3 20 6 11 4 16 1 16 -11 0 -9 4
-14 8 -11 5 3 7 -19 4 -49 -3 -33 0 -55 6 -55 13 0 29 20 35 45 2 11 5 1 6
-22 1 -28 6 -43 14 -43 9 0 12 11 9 37 -5 40 22 103 44 103 7 0 16 9 19 21 12
38 14 14 3 -31 -11 -42 -12 -43 -20 -20 -6 19 -7 17 -3 -10 3 -19 10 -39 16
-45 7 -7 10 -5 8 5 -2 8 8 35 23 59 l27 44 16 -56 c9 -31 20 -59 25 -62 5 -3
7 -13 4 -23 -5 -13 -4 -14 4 -3 5 7 15 11 21 7 14 -9 1 26 -15 39 -7 6 -15 21
-19 35 -6 25 -6 25 20 -4 25 -27 27 -28 40 -10 8 11 18 30 22 44 6 23 7 23 14
5 7 -18 8 -17 8 5 1 20 3 22 11 10 9 -14 5 -104 -6 -122 -3 -5 -10 -6 -15 -3
-17 11 -9 -2 17 -26 l27 -24 -6 30 c-8 44 3 120 15 103 6 -8 8 1 5 29 -3 24
-1 45 4 48 5 4 4 13 -2 23 -7 12 -7 25 0 45 12 32 31 36 31 6z m1647 15 c-3
-3 -12 -4 -19 -1 -8 3 -5 6 6 6 11 1 17 -2 13 -5z m-1517 -11 c0 -5 -5 -15
-10 -23 -8 -12 -10 -11 -10 8 0 12 5 22 10 22 6 0 10 -3 10 -7z m-183 -25 c-3
-8 -6 -5 -6 6 -1 11 2 17 5 13 3 -3 4 -12 1 -19z m1703 7 c14 -16 10 -18 -14
-9 -9 3 -16 10 -16 15 0 14 16 11 30 -6z m-1480 -45 c-12 -23 -23 -40 -26 -38
-5 6 20 69 32 81 17 16 14 -4 -6 -43z m850 20 c28 -8 23 -9 -29 -5 -35 3 -81
5 -102 5 -22 0 -39 5 -39 11 0 13 107 5 170 -11z m-1138 -60 c4 0 8 -6 8 -14
0 -9 -8 -13 -22 -10 -13 2 -17 2 -10 -2 14 -6 17 -44 3 -44 -4 0 -16 20 -25
44 -16 43 -16 46 1 73 l18 27 9 -37 c5 -20 13 -37 18 -37z m853 60 c-17 -7
-16 -9 10 -10 l30 -2 -35 -8 c-57 -13 -160 -19 -160 -9 0 18 39 30 59 17 15
-9 26 -8 52 5 19 9 41 16 49 16 10 0 8 -3 -5 -9z m88 3 c-13 -2 -33 -2 -45 0
-13 2 -3 4 22 4 25 0 35 -2 23 -4z m-690 -18 c-3 -9 -8 -14 -10 -11 -3 3 -2 9
2 15 9 16 15 13 8 -4z m141 8 c-5 -5 -12 -12 -16 -18 -4 -6 -8 -2 -8 8 0 9 7
17 17 17 9 0 12 -3 7 -7z m199 -18 c-10 -13 -26 -27 -36 -30 -9 -4 -31 -18
-47 -32 -21 -17 -28 -20 -24 -8 7 16 102 95 117 95 4 0 0 -11 -10 -25z m-242
-8 c-10 -9 -11 -8 -5 6 3 10 9 15 12 12 3 -3 0 -11 -7 -18z m702 10 c102 -19
165 -26 182 -23 11 2 25 1 30 -3 6 -3 15 -6 20 -6 23 -1 123 -55 128 -69 5
-11 -2 -10 -29 6 -48 28 -43 18 10 -20 46 -33 62 -40 50 -21 -4 7 7 1 25 -12
36 -26 39 -39 10 -39 -13 0 -18 4 -13 13 5 8 2 7 -9 -2 -15 -12 -19 -12 -31 4
-7 10 -17 16 -22 12 -12 -7 -38 13 -47 36 -5 13 -13 16 -26 12 -13 -4 -24 1
-34 16 -10 13 -20 18 -28 14 -7 -5 -10 -4 -6 2 4 6 0 13 -8 17 -8 3 -14 2 -14
-2 3 -19 -2 -25 -11 -12 -9 13 -11 13 -19 0 -5 -8 -7 -18 -5 -22 6 -10 1 -10
-20 -2 -9 3 -16 12 -16 20 0 8 -8 14 -17 15 -10 1 0 7 22 15 37 13 38 14 7 9
-18 -2 -31 -1 -28 4 3 5 -28 12 -69 16 -41 4 -73 11 -69 16 3 5 -7 9 -21 9
-18 0 -24 -4 -19 -12 5 -9 2 -9 -9 1 -9 7 -17 15 -17 16 0 4 66 -2 103 -8z
m250 -7 c55 -12 158 -61 141 -67 -6 -2 -36 7 -65 20 -30 14 -78 32 -106 42
-29 9 -53 19 -53 21 0 3 8 3 18 0 9 -3 39 -10 65 -16z m298 -9 c13 -11 22 -22
19 -24 -3 -3 -18 6 -33 19 -33 28 -20 33 14 5z m-921 -1 c0 -14 -61 -38 -84
-32 -14 4 -10 9 20 23 44 21 64 24 64 9z m1180 0 c0 -5 -2 -10 -4 -10 -3 0 -8
5 -11 10 -3 6 -1 10 4 10 6 0 11 -4 11 -10z m-1500 -20 c0 -5 -5 -10 -11 -10
-5 0 -7 5 -4 10 3 6 8 10 11 10 2 0 4 -4 4 -10z m1396 -33 c26 -27 47 -40 53
-34 5 5 11 4 16 -2 3 -6 3 -10 -2 -9 -4 2 -9 -1 -10 -7 -2 -5 0 -10 5 -10 4 0
13 -4 20 -8 6 -5 16 -6 21 -3 5 3 15 -2 22 -12 13 -15 12 -16 -3 -3 -13 9 -18
10 -18 2 0 -7 -6 -9 -12 -6 -7 4 -4 -1 6 -9 26 -21 15 -29 -13 -10 -12 9 -20
22 -17 30 3 8 0 11 -8 8 -8 -3 -28 12 -47 36 -19 23 -44 46 -56 51 -13 5 -23
13 -23 19 0 21 24 9 66 -33z m179 17 c17 -15 22 -24 13 -20 -26 8 -22 0 15
-35 17 -17 25 -27 17 -23 -26 13 -60 48 -60 62 0 7 -5 10 -12 6 -7 -4 -8 -3
-4 5 4 7 -2 15 -16 20 -21 9 -21 10 -3 10 11 0 34 -11 50 -25z m-1637 -25 c-6
-4 -14 -22 -19 -40 -7 -27 -7 -24 -3 16 7 60 15 76 24 49 4 -10 3 -22 -2 -25z
m108 -7 c-14 -14 -16 -14 -16 -1 0 20 23 44 29 28 2 -6 -4 -18 -13 -27z m179
19 c-2 -5 -14 -11 -25 -14 -11 -3 -18 -1 -15 3 3 5 -1 10 -7 13 -7 2 2 4 20 5
18 0 30 -3 27 -7z m1006 -8 c13 -16 12 -17 -3 -4 -10 7 -18 15 -18 17 0 8 8 3
21 -13z m84 -13 c10 -11 16 -23 13 -26 -7 -6 -48 27 -48 38 0 14 17 8 35 -12z
m-815 0 c0 -5 -5 -10 -11 -10 -5 0 -7 5 -4 10 3 6 8 10 11 10 2 0 4 -4 4 -10z
m-399 -23 c-10 -9 -11 -8 -5 6 3 10 9 15 12 12 3 -3 0 -11 -7 -18z m1033 -17
c42 -26 139 -127 106 -110 -14 7 -36 24 -50 39 -14 14 -43 41 -65 59 -44 36
-39 43 9 12z m-164 -9 c23 -10 22 -10 -10 -5 -19 4 -42 10 -50 15 -21 13 27 4
60 -10z m787 -13 c9 -11 11 -18 5 -18 -7 0 -12 5 -12 10 0 6 -4 10 -9 10 -6 0
-8 -9 -6 -21 3 -17 2 -19 -10 -9 -17 14 -16 47 2 47 7 0 20 -9 30 -19z m-1520
-20 c-3 -8 -6 -5 -6 6 -1 11 2 17 5 13 3 -3 4 -12 1 -19z m56 -3 c-3 -9 -8
-14 -10 -11 -3 3 -2 9 2 15 9 16 15 13 8 -4z m73 -30 c-9 -9 -16 -13 -16 -8 0
12 22 34 28 28 2 -2 -3 -11 -12 -20z m-126 -19 c0 -8 7 -19 15 -26 8 -7 15
-17 15 -23 0 -5 -11 2 -25 17 -24 26 -35 63 -15 51 6 -3 10 -12 10 -19z m40
-3 c0 -21 -3 -24 -9 -14 -5 8 -7 20 -4 28 8 21 13 15 13 -14z m1255 7 c3 -6
-1 -7 -9 -4 -18 7 -21 14 -7 14 6 0 13 -4 16 -10z m-3438 -6 c-3 -3 -12 -4
-19 -1 -8 3 -5 6 6 6 11 1 17 -2 13 -5z m2539 -174 c8 0 14 -10 14 -25 0 -28
-19 -26 -38 6 -9 14 -11 31 -5 52 l8 32 3 -32 c2 -21 9 -33 18 -33z m955 -82
c11 -21 11 -22 -4 -9 -10 7 -17 17 -17 22 0 15 9 10 21 -13z m-2996 -68 c-3
-5 -12 -10 -18 -10 -7 0 -6 4 3 10 19 12 23 12 15 0z m-1229 -51 c-10 15 41
14 60 -1 8 -7 21 -19 29 -26 8 -7 15 -10 15 -6 0 4 10 -6 22 -22 13 -16 26
-30 30 -32 5 -2 8 -12 8 -22 0 -9 7 -33 15 -52 8 -22 13 -59 11 -94 -3 -61
-36 -150 -51 -137 -4 5 -5 2 -1 -5 10 -17 -18 -48 -61 -69 -19 -9 -56 -36 -84
-60 -27 -25 -60 -46 -73 -47 -13 0 -22 -4 -20 -8 2 -3 -8 -10 -23 -15 -32 -11
-77 8 -93 38 -6 10 -18 19 -28 19 -18 0 -81 88 -88 123 -2 11 -8 25 -14 31 -6
6 -5 15 3 25 9 11 9 13 0 8 -11 -7 -11 45 1 98 2 11 5 27 5 36 1 9 21 38 46
65 25 26 45 51 45 56 0 4 7 8 15 8 8 0 23 8 33 18 11 11 33 25 50 33 18 8 32
17 32 20 0 8 45 3 62 -7 7 -4 10 -4 6 0 -13 15 16 35 36 24 13 -7 16 -7 12 1z
m624 -133 c0 -2 -7 -7 -16 -10 -8 -3 -12 -2 -9 4 6 10 25 14 25 6z m-69 -129
c-10 -9 -11 -8 -5 6 3 10 9 15 12 12 3 -3 0 -11 -7 -18z m3316 -19 c-3 -8 -6
-5 -6 6 -1 11 2 17 5 13 3 -3 4 -12 1 -19z m-3246 -31 c-10 -9 -11 -8 -5 6 3
10 9 15 12 12 3 -3 0 -11 -7 -18z m3229 -77 c-6 -11 -13 -20 -16 -20 -2 0 0 9
6 20 6 11 13 20 16 20 2 0 0 -9 -6 -20z m-3283 -242 c-3 -8 -6 -5 -6 6 -1 11
2 17 5 13 3 -3 4 -12 1 -19z m3555 -25 c22 -20 23 -29 3 -37 -10 -3 -20 5 -30
24 -18 34 -4 41 27 13z m-2275 -730 c-9 -2 -14 -9 -11 -15 4 -7 2 -8 -5 -4
-15 10 -4 26 17 25 15 -1 15 -2 -1 -6z m1934 -32 c86 -14 139 -31 139 -43 0
-6 -7 -5 -17 3 -16 13 -17 12 -4 -3 10 -13 18 -15 31 -8 24 13 48 3 55 -21 4
-10 11 -19 16 -19 5 0 9 -4 9 -9 0 -6 -12 -6 -30 -1 -16 5 -32 5 -35 0 -7 -11
-119 -5 -232 12 -51 8 -93 11 -93 7 0 -4 -21 -7 -47 -7 -65 2 -234 -10 -240
-16 -3 -2 -15 0 -28 6 -19 9 -21 13 -11 34 6 13 17 22 24 19 7 -2 21 4 31 14
11 11 41 22 67 26 27 3 50 8 53 11 8 8 256 4 312 -5z m416 -73 c-3 -7 -5 -2
-5 12 0 14 2 19 5 13 2 -7 2 -19 0 -25z m-2497 -48 c25 -7 24 -8 -12 -24 -21
-9 -43 -16 -49 -16 -7 0 -26 -4 -43 -9 -17 -5 -58 -17 -91 -27 -93 -27 -188
-78 -227 -122 -20 -22 -44 -42 -54 -44 -10 -1 -17 -7 -16 -13 12 -106 12 -105
47 -105 19 0 37 5 40 11 4 5 12 8 18 6 7 -2 30 2 52 10 39 14 100 10 135 -7
41 -21 102 -31 116 -19 11 9 18 9 26 1 15 -15 42 -16 33 -2 -3 6 1 7 10 4 8
-4 29 -1 46 6 21 9 33 10 41 2 7 -7 -2 -12 -29 -16 -59 -11 -78 -29 -23 -23
25 3 54 8 65 13 17 7 18 5 8 -8 -7 -8 -10 -17 -7 -21 3 -3 -14 -11 -38 -17
-23 -7 -54 -16 -68 -20 -24 -8 -24 -8 6 -9 17 -1 56 7 87 17 31 11 61 16 68
12 8 -5 5 -10 -10 -15 -11 -3 -21 -13 -21 -21 0 -8 -11 -14 -27 -15 -16 0 -22
-3 -15 -6 21 -8 13 -21 -24 -39 -25 -12 -32 -19 -22 -25 7 -5 14 -4 16 0 2 5
12 7 23 4 15 -4 22 0 26 17 3 12 9 18 12 13 3 -5 30 1 58 12 29 12 51 24 48
26 -2 3 6 6 18 6 12 1 23 7 25 13 2 5 9 10 16 10 7 0 29 15 49 34 20 18 37 32
37 29 0 -7 42 35 43 44 3 15 31 43 46 43 10 0 12 10 8 40 -5 42 0 48 22 28 11
-11 12 -1 7 54 -5 57 -4 67 8 62 32 -12 66 -120 66 -211 0 -50 -3 -63 -15 -63
-9 0 -18 -12 -21 -29 -4 -20 -13 -31 -27 -33 -29 -4 -37 -38 -17 -75 23 -43
40 -29 56 44 7 32 13 47 13 33 1 -39 -35 -188 -62 -261 -65 -171 -159 -247
-352 -284 -287 -55 -602 -6 -704 110 -43 49 -98 170 -129 285 -22 83 -26 116
-26 260 -1 198 6 218 87 255 121 55 550 105 647 75z m2320 -16 c0 -20 -16 -25
-30 -9 -7 8 -27 16 -44 16 l-31 1 30 7 c40 9 75 2 75 -15z m-3240 -49 c-7 -8
-9 -15 -5 -15 4 0 2 -7 -5 -15 -10 -12 -16 -13 -26 -4 -18 15 -18 29 1 29 8 0
15 5 15 10 0 6 7 10 16 10 14 0 14 -3 4 -15z m770 -55 c0 -5 -8 -10 -18 -10
-10 0 -23 -5 -30 -12 -7 -7 -12 -8 -12 -2 0 6 10 16 23 22 29 14 37 14 37 2z
m57 -66 c-3 -3 -12 -4 -19 -1 -8 3 -5 6 6 6 11 1 17 -2 13 -5z m-24 -42 c-2
-10 7 -34 21 -54 26 -39 21 -48 -26 -43 -40 5 -68 15 -68 26 0 19 30 68 47 78
26 15 32 13 26 -7z m1227 -42 c0 -5 9 -10 20 -10 29 0 84 -38 103 -72 9 -15
25 -28 35 -28 10 0 33 -7 51 -16 18 -9 43 -17 56 -18 13 0 22 -3 19 -5 -7 -7
66 -41 90 -41 13 0 26 -5 28 -10 2 -6 25 -13 52 -15 27 -3 66 -10 85 -15 55
-15 275 -12 345 4 34 8 70 17 81 19 15 3 12 5 -7 6 -16 0 -28 5 -28 10 0 5 12
12 28 14 15 2 -2 5 -38 6 -40 1 -60 5 -52 10 22 13 -21 20 -133 20 -55 0 -122
5 -150 11 -27 6 -67 13 -87 16 -20 4 -39 13 -43 22 -4 12 1 13 37 7 75 -14
329 -14 378 0 l45 13 -36 1 c-20 1 -61 -4 -93 -10 -50 -10 -78 -8 -65 5 3 3
47 13 99 23 73 15 109 17 155 10 112 -16 268 5 250 34 -4 5 0 9 9 9 22 0 28
-63 17 -165 -18 -155 -64 -272 -125 -319 -82 -62 -224 -107 -416 -132 -212
-27 -379 -5 -490 66 -57 37 -74 57 -127 149 -41 73 -42 75 -23 88 22 15 28 67
9 79 -6 4 -8 20 -5 40 5 26 2 38 -14 54 -11 11 -23 20 -27 20 -11 0 -33 51
-27 61 3 5 -1 6 -9 3 -8 -3 -14 2 -14 11 0 8 4 15 9 15 5 0 4 9 -2 20 -7 14
-7 20 0 20 5 0 10 -4 10 -10z m-750 -76 c0 -14 -3 -15 -17 -3 -10 7 -20 15
-22 16 -2 2 5 3 17 3 14 0 22 -6 22 -16z m794 -77 c-3 -8 -11 -14 -19 -14 -18
0 -20 13 -2 20 21 9 27 7 21 -6z m-650 -36 c7 -10 -22 -37 -30 -28 -9 8 3 37
15 37 5 0 12 -4 15 -9z m-374 -31 c0 -5 -4 -10 -10 -10 -5 0 -10 5 -10 10 0 6
5 10 10 10 6 0 10 -4 10 -10z m332 -351 c-22 -54 -105 -141 -127 -133 -10 4
-15 2 -13 -7 2 -7 -3 -13 -10 -14 -7 0 -16 -4 -20 -10 -4 -5 -20 -11 -37 -13
-16 -2 -33 -9 -37 -15 -6 -9 -8 -9 -8 1 0 10 -5 10 -20 2 -12 -6 -27 -7 -35
-2 -11 6 -1 12 37 21 108 28 209 96 258 176 29 46 32 44 12 -6z m-367 -199
c-11 -5 -27 -9 -35 -9 -9 0 -8 4 5 9 11 5 27 9 35 9 9 0 8 -4 -5 -9z m2523
-185 c-3 -3 -9 2 -12 12 -6 14 -5 15 5 6 7 -7 10 -15 7 -18z m-783 -35 c3 -5
1 -10 -4 -10 -6 0 -11 5 -11 10 0 6 2 10 4 10 3 0 8 -4 11 -10z m615 6 c0 -3
-4 -8 -10 -11 -5 -3 -10 -1 -10 4 0 6 5 11 10 11 6 0 10 -2 10 -4z m180 -61
c0 -8 -2 -15 -4 -15 -2 0 -6 7 -10 15 -3 8 -1 15 4 15 6 0 10 -7 10 -15z
m-1065 -315 c3 -5 1 -10 -4 -10 -6 0 -11 5 -11 10 0 6 2 10 4 10 3 0 8 -4 11
-10z m1125 -120 c0 -5 -7 -10 -15 -10 -8 0 -15 5 -15 10 0 6 7 10 15 10 8 0
15 -4 15 -10z m-13 -46 c-9 -9 -28 6 -21 18 4 6 10 6 17 -1 6 -6 8 -13 4 -17z
m-645 -39 c-2 -10 1 -14 7 -10 6 3 11 2 11 -4 0 -5 -5 -11 -12 -13 -6 -2 4
-14 23 -27 19 -13 25 -20 15 -17 -20 7 -20 7 -1 -14 19 -21 19 -21 -8 -11 -17
7 -27 7 -27 1 0 -6 5 -10 10 -10 16 0 12 -40 -5 -46 -8 -4 -15 -13 -15 -21 0
-8 -4 -11 -10 -8 -5 3 -10 -1 -10 -9 0 -9 8 -16 18 -16 9 0 -6 -14 -35 -30
-62 -35 -63 -36 -63 -11 0 23 -21 42 -50 44 -16 1 -18 4 -8 12 8 6 12 26 10
52 -3 40 -1 45 32 64 37 21 48 49 21 49 -8 0 -15 4 -15 9 0 9 30 25 42 23 5
-1 13 7 20 18 11 17 15 18 33 6 11 -8 19 -22 17 -31z m-207 -95 c-3 -5 -11
-10 -16 -10 -6 0 -7 5 -4 10 3 6 11 10 16 10 6 0 7 -4 4 -10z m-7 -110 c-7
-17 -17 -30 -22 -30 -5 0 -6 3 -3 7 4 3 -1 12 -11 20 -16 12 -16 13 1 7 13 -5
17 0 18 20 1 24 3 32 9 54 1 4 6 -5 12 -21 7 -19 6 -35 -4 -57z m32 -10 c0 -5
-5 -10 -12 -10 -6 0 -8 -3 -5 -6 8 -8 -10 -44 -22 -44 -4 0 -3 16 3 35 10 32
36 50 36 25z m-5 -170 c-3 -5 -12 -10 -18 -10 -7 0 -6 4 3 10 19 12 23 12 15
0z m-737 -12 c-2 -7 4 -13 12 -13 8 0 23 -8 34 -17 24 -22 14 -52 -14 -43 -13
4 -23 0 -32 -14 -7 -12 -18 -21 -25 -21 -22 0 -29 77 -9 108 10 16 37 16 34 0z
m112 -39 c0 -5 -4 -9 -10 -9 -5 0 -10 7 -10 16 0 8 5 12 10 9 6 -3 10 -10 10
-16z m85 11 c3 -5 2 -10 -4 -10 -5 0 -13 5 -16 10 -3 6 -2 10 4 10 5 0 13 -4
16 -10z m262 -22 c-3 -8 -6 -5 -6 6 -1 11 2 17 5 13 3 -3 4 -12 1 -19z m-662
-8 c3 -5 12 -7 20 -3 11 4 13 1 9 -11 -4 -12 -2 -15 9 -11 18 8 32 -25 15 -36
-7 -4 -15 -3 -19 3 -4 7 -9 7 -13 -1 -12 -19 -33 -12 -39 12 -2 12 -8 30 -12
40 -5 12 -3 17 8 17 9 0 18 -4 22 -10z m-75 -20 c0 -5 -4 -10 -10 -10 -5 0
-10 -7 -10 -15 0 -8 -7 -15 -15 -15 -14 0 -13 3 2 25 19 25 33 32 33 15z m290
-40 c0 -5 -5 -10 -11 -10 -5 0 -7 5 -4 10 3 6 8 10 11 10 2 0 4 -4 4 -10z
m314 -95 c-6 -16 -24 -21 -24 -7 0 11 11 22 21 22 5 0 6 -7 3 -15z m421 -365
c-3 -5 -11 -10 -16 -10 -6 0 -7 5 -4 10 3 6 11 10 16 10 6 0 7 -4 4 -10z m505
-365 c0 -9 -6 -12 -16 -8 -13 5 -13 7 -2 14 17 11 18 11 18 -6z m-1825 -125
c3 -5 -1 -10 -9 -10 -8 0 -18 5 -21 10 -3 6 1 10 9 10 8 0 18 -4 21 -10z
m1235 -720 c-8 -5 -19 -10 -25 -10 -5 0 -3 5 5 10 8 5 20 10 25 10 6 0 3 -5
-5 -10z m-36 -35 c-4 -8 -7 -15 -9 -15 -2 0 -5 7 -9 15 -3 9 0 15 9 15 9 0 12
-6 9 -15z m-24 -14 c0 -13 -28 -22 -35 -11 -3 4 1 11 7 13 20 8 28 8 28 -2z
m-2079 -1618 c13 -16 12 -17 -3 -4 -17 13 -22 21 -14 21 2 0 10 -8 17 -17z
m19 -46 c0 -4 -9 -3 -20 3 -11 6 -20 15 -20 20 0 6 9 5 20 -2 11 -7 20 -16 20
-21z m160 -1362 c7 -8 8 -15 2 -15 -5 0 -15 7 -22 15 -7 8 -8 15 -2 15 5 0 15
-7 22 -15z"/>
        <path d="M5136 9093 c-6 -14 -5 -15 5 -6 7 7 10 15 7 18 -3 3 -9 -2 -12 -12z"/>
        <path d="M5045 9050 c-4 -6 3 -10 14 -10 25 0 27 6 6 13 -8 4 -17 2 -20 -3z"/>
        <path d="M6115 8590 c3 -5 11 -10 16 -10 6 0 7 5 4 10 -3 6 -11 10 -16 10 -6
0 -7 -4 -4 -10z"/>
        <path d="M5940 8560 c0 -5 4 -10 9 -10 6 0 13 5 16 10 3 6 -1 10 -9 10 -9 0
-16 -4 -16 -10z"/>
        <path d="M6010 8540 c0 -5 5 -10 10 -10 6 0 10 5 10 10 0 6 -4 10 -10 10 -5 0
-10 -4 -10 -10z"/>
        <path d="M6410 8019 c0 -11 4 -18 10 -14 5 3 7 12 3 20 -7 21 -13 19 -13 -6z"/>
        <path d="M6467 7954 c3 -9 -1 -14 -12 -14 -10 0 -13 -4 -9 -12 4 -7 8 -29 9
-49 2 -57 65 -140 79 -104 3 10 0 12 -11 8 -11 -4 -14 -3 -9 6 14 21 14 61 1
61 -7 0 -19 7 -26 16 -11 13 -10 17 3 25 14 8 14 14 5 39 -6 16 -17 32 -24 34
-7 3 -10 -1 -6 -10z"/>
        <path d="M6514 7886 c-23 -17 -17 -25 13 -17 15 4 20 10 15 18 -7 10 -12 10
-28 -1z"/>
        <path d="M6402 7807 c-9 -11 -10 -17 -2 -22 15 -9 23 -1 18 21 -3 15 -4 16
-16 1z"/>
        <path d="M6616 7786 c-10 -15 -12 -27 -6 -31 6 -3 15 6 20 21 14 36 7 41 -14
10z"/>
        <path d="M6128 7443 c12 -2 30 -2 40 0 9 3 -1 5 -23 4 -22 0 -30 -2 -17 -4z"/>
        <path d="M6165 7402 c-27 -9 -50 -23 -50 -30 0 -7 -7 -17 -15 -22 -25 -16 -4
-11 47 11 41 18 49 18 57 6 8 -12 15 -13 34 -4 18 9 25 8 33 -4 6 -10 11 -11
17 -3 4 6 14 14 22 18 8 3 4 4 -9 2 -14 -3 -31 0 -38 6 -9 7 -17 7 -28 -2 -24
-20 -38 0 -14 21 27 23 12 23 -56 1z"/>
        <path d="M6250 7406 c0 -2 7 -7 16 -10 8 -3 12 -2 9 4 -6 10 -25 14 -25 6z"/>
        <path d="M4600 7360 c0 -5 5 -10 11 -10 5 0 7 5 4 10 -3 6 -8 10 -11 10 -2 0
-4 -4 -4 -10z"/>
        <path d="M4840 7294 c0 -14 3 -14 15 -4 8 7 15 14 15 16 0 2 -7 4 -15 4 -8 0
-15 -7 -15 -16z"/>
        <path d="M4923 7292 c-13 -2 -23 -7 -23 -12 0 -12 25 -19 40 -10 19 12 8 25
-17 22z"/>
        <path d="M5040 7291 c0 -5 7 -11 14 -14 10 -4 13 -1 9 9 -6 15 -23 19 -23 5z"/>
        <path d="M5036 7261 c-4 -7 -5 -15 -2 -18 9 -9 19 4 14 18 -4 11 -6 11 -12 0z"/>
        <path d="M4190 7231 c0 -5 5 -13 10 -16 6 -3 10 -2 10 4 0 5 -4 13 -10 16 -5
3 -10 2 -10 -4z"/>
        <path d="M6306 7165 c4 -8 8 -15 10 -15 2 0 4 7 4 15 0 8 -4 15 -10 15 -5 0
-7 -7 -4 -15z"/>
        <path d="M3456 6934 c-3 -9 -6 -28 -6 -42 1 -26 1 -26 15 -8 17 22 20 52 6 60
-5 3 -12 -1 -15 -10z"/>
        <path d="M4035 6750 c-3 -5 1 -10 9 -10 9 0 16 5 16 10 0 6 -4 10 -9 10 -6 0
-13 -4 -16 -10z"/>
        <path d="M6188 6703 c7 -3 16 -2 19 1 4 3 -2 6 -13 5 -11 0 -14 -3 -6 -6z"/>
        <path d="M6075 5160 c-3 -6 1 -7 9 -4 18 7 21 14 7 14 -6 0 -13 -4 -16 -10z"/>
        <path d="M9856 10231 c-14 -22 -7 -82 14 -122 8 -14 8 -19 1 -15 -30 19 14
-61 60 -108 32 -33 33 -35 20 -55 -10 -16 27 -93 63 -132 30 -33 43 -74 43
-136 0 -33 7 -62 18 -79 9 -15 19 -34 20 -43 2 -9 4 -16 5 -16 1 0 4 -13 5
-30 2 -16 6 -57 11 -90 9 -73 9 -103 0 -135 -33 -118 -48 -376 -26 -460 15
-60 23 -123 21 -188 -1 -38 5 -74 14 -92 11 -22 12 -30 2 -33 -6 -3 -2 -6 11
-6 12 -1 22 -6 22 -12 0 -6 -7 -9 -15 -5 -14 5 -20 -15 -16 -51 1 -7 -3 -13
-9 -13 -5 0 -10 -9 -10 -21 0 -11 -4 -17 -10 -14 -5 3 -10 1 -10 -5 0 -6 -4
-9 -9 -6 -4 3 -7 -10 -6 -30 1 -19 -2 -37 -7 -40 -4 -3 -8 -17 -9 -32 0 -15
-3 -22 -5 -15 -4 8 -16 2 -35 -16 -28 -27 -79 -39 -79 -19 0 5 -10 3 -22 -4
-13 -7 -28 -11 -35 -10 -16 4 -41 -58 -38 -91 2 -15 -1 -27 -5 -27 -5 0 -7
-15 -6 -34 3 -29 -1 -39 -25 -57 -20 -15 -29 -31 -29 -52 0 -16 -10 -48 -21
-71 -12 -22 -26 -49 -31 -60 -5 -10 -11 -37 -13 -61 -3 -30 -13 -52 -36 -76
-18 -19 -35 -33 -39 -32 -4 1 -13 -9 -20 -22 -12 -22 -67 -51 -78 -41 -2 3
-11 -2 -19 -10 -8 -8 -19 -12 -24 -9 -5 4 -9 -1 -9 -10 0 -11 -5 -15 -15 -11
-10 3 -18 -1 -22 -12 -4 -9 -14 -25 -23 -35 -15 -16 -20 -16 -50 -3 -24 10
-42 11 -59 5 -13 -6 -32 -7 -40 -4 -14 5 -14 4 0 -7 16 -13 15 -43 -2 -32 -5
3 -13 -6 -19 -20 -5 -14 -17 -34 -27 -44 -29 -31 -53 -65 -53 -75 0 -11 -81
-116 -109 -141 -11 -11 -21 -15 -21 -11 0 4 -8 1 -17 -7 -10 -8 -31 -19 -48
-22 -16 -4 -32 -11 -35 -14 -8 -11 -99 -52 -116 -52 -8 0 -12 -5 -8 -11 4 -7
-4 -10 -22 -7 -19 2 -28 -1 -26 -10 1 -8 -5 -11 -22 -6 -34 8 -39 -8 -12 -37
28 -30 48 -67 52 -94 7 -44 11 -56 22 -67 7 -7 12 -18 12 -25 0 -7 6 -13 13
-13 8 0 7 -4 -3 -10 -10 -7 -12 -12 -4 -17 13 -9 37 -52 40 -72 2 -8 9 -18 16
-22 7 -5 13 -16 13 -25 0 -11 12 -21 30 -26 33 -8 65 -2 65 13 0 5 7 9 15 9 9
0 51 26 95 58 75 55 85 60 165 71 47 7 95 11 108 7 12 -3 28 -1 36 3 12 8 52
-1 91 -19 13 -6 57 -9 145 -12 48 -2 57 3 72 39 l15 37 31 -34 c17 -19 34 -35
38 -35 12 0 118 -118 125 -138 8 -26 54 -77 70 -77 13 0 27 -25 29 -50 0 -8
-9 -27 -21 -42 -23 -28 -23 -68 0 -68 6 0 5 -4 -3 -9 -11 -7 -12 -13 -4 -23 6
-7 9 -23 8 -35 -2 -23 25 -40 45 -28 5 3 10 0 10 -7 0 -11 2 -11 9 0 6 10 21
0 58 -37 28 -28 48 -53 45 -56 -3 -3 2 -5 10 -5 9 0 18 -7 22 -15 3 -8 10 -15
16 -15 7 0 10 647 10 2045 l0 2045 -189 0 c-105 0 -192 -4 -195 -9z m74 -2035
c0 -3 -4 -8 -10 -11 -5 -3 -10 -1 -10 4 0 6 5 11 10 11 6 0 10 -2 10 -4z"/>
        <path d="M4857 9990 c-43 -22 -83 -38 -88 -34 -5 3 -8 0 -7 -8 2 -7 -5 -12
-14 -12 -10 1 -15 -2 -13 -7 3 -5 -3 -14 -15 -21 -35 -22 -22 -31 15 -9 19 11
37 16 39 12 11 -17 56 2 97 40 44 41 55 48 43 27 -4 -7 2 -4 14 6 25 21 31 36
7 16 -18 -15 -20 1 -3 18 18 18 9 15 -75 -28z"/>
        <path d="M5325 9890 c3 -6 -1 -10 -9 -10 -9 0 -16 -4 -16 -10 0 -5 -4 -10 -10
-10 -5 0 -9 5 -7 12 3 15 -75 14 -101 -1 -14 -8 -11 -10 13 -8 18 1 29 -3 28
-10 -4 -21 148 -32 250 -19 66 10 78 19 39 34 -37 14 -122 22 -122 11 0 -5 -9
-9 -20 -9 -11 0 -20 4 -20 9 0 5 -7 12 -16 15 -8 3 -12 2 -9 -4z"/>
        <path d="M4295 9874 c-11 -8 -25 -12 -31 -10 -7 3 -18 -1 -24 -9 -16 -20 32
-12 90 14 43 19 43 21 15 20 -16 0 -39 -6 -50 -15z"/>
        <path d="M4071 9789 c-27 -16 -31 -23 -20 -30 10 -6 15 -4 17 7 3 11 12 15 27
11 14 -2 23 1 22 7 -1 6 4 10 11 8 8 -1 11 2 7 8 -9 15 -26 12 -64 -11z"/>
        <path d="M4985 9785 l-30 -25 38 21 c20 11 37 23 37 25 0 10 -17 2 -45 -21z"/>
        <path d="M5080 9802 c0 -7 -8 -12 -17 -12 -10 0 -25 -5 -33 -11 -11 -7 -4 -8
25 -3 48 8 52 11 37 26 -9 9 -12 9 -12 0z"/>
        <path d="M5710 9784 c-8 -1 -45 -6 -81 -9 -59 -6 -68 -9 -78 -32 -11 -24 -10
-25 11 -19 13 3 41 6 63 6 23 0 35 4 28 8 -7 4 13 9 45 10 31 1 66 5 76 8 18
6 18 7 -5 20 -24 13 -31 14 -59 8z"/>
        <path d="M4900 9770 c-9 -6 -10 -10 -3 -10 6 0 15 5 18 10 8 12 4 12 -15 0z"/>
        <path d="M3970 9746 c-44 -31 -117 -106 -103 -106 6 0 16 7 23 15 7 8 18 15
24 15 11 0 76 64 90 88 10 17 5 15 -34 -12z"/>
        <path d="M5335 9750 c3 -5 10 -10 16 -10 5 0 9 5 9 10 0 6 -7 10 -16 10 -8 0
-12 -4 -9 -10z"/>
        <path d="M4590 9733 c-14 -7 -18 -13 -10 -13 17 0 47 17 40 23 -3 2 -16 -2
-30 -10z"/>
        <path d="M4899 9736 c-2 -2 -28 -7 -58 -10 -75 -9 -101 -16 -101 -28 0 -17
119 -3 175 20 46 19 48 21 19 21 -17 1 -33 -1 -35 -3z"/>
        <path d="M5718 9733 c6 -2 18 -2 25 0 6 3 1 5 -13 5 -14 0 -19 -2 -12 -5z"/>
        <path d="M4065 9719 c-10 -14 -1 -21 19 -13 9 3 13 10 10 15 -7 12 -21 11 -29
-2z"/>
        <path d="M5273 9719 c-18 -5 -33 -12 -33 -14 0 -7 64 7 75 16 11 11 1 10 -42
-2z"/>
        <path d="M4902 9701 c-11 -7 -10 -9 3 -14 9 -4 14 -3 10 2 -3 5 1 12 7 14 7 3
9 6 3 6 -5 0 -16 -3 -23 -8z"/>
        <path d="M5495 9700 c-7 -12 2 -12 30 0 19 8 19 9 -2 9 -12 1 -25 -3 -28 -9z"/>
        <path d="M4440 9680 c-13 -9 -13 -10 0 -9 8 0 24 4 35 9 l20 9 -20 0 c-11 0
-27 -4 -35 -9z"/>
        <path d="M4503 9653 c9 -2 25 -2 35 0 9 3 1 5 -18 5 -19 0 -27 -2 -17 -5z"/>
        <path d="M3875 9632 c-11 -4 -21 -15 -21 -24 -1 -14 2 -15 17 -5 14 9 38 41
26 36 -1 -1 -11 -4 -22 -7z"/>
        <path d="M3820 9609 c0 -5 5 -7 10 -4 6 3 10 8 10 11 0 2 -4 4 -10 4 -5 0 -10
-5 -10 -11z"/>
        <path d="M3667 9489 c-22 -25 -18 -34 8 -16 10 8 16 19 14 26 -3 7 -11 4 -22
-10z"/>
        <path d="M3911 9478 c-14 -23 -14 -23 8 -4 22 20 25 26 13 26 -4 0 -13 -10
-21 -22z"/>
        <path d="M6620 9445 c0 -8 4 -15 9 -15 5 0 17 -3 27 -7 23 -9 10 13 -17 27
-15 9 -19 7 -19 -5z"/>
        <path d="M9645 7660 c-3 -5 -1 -10 4 -10 6 0 11 5 11 10 0 6 -2 10 -4 10 -3 0
-8 -4 -11 -10z"/>
        <path d="M6762 7098 c2 -6 10 -13 16 -14 7 -1 8 0 2 3 -5 2 -8 9 -4 14 3 5 0
9 -6 9 -7 0 -10 -5 -8 -12z"/>
        <path d="M6770 7044 c0 -8 5 -12 10 -9 6 3 10 10 10 16 0 5 -4 9 -10 9 -5 0
-10 -7 -10 -16z"/>
        <path d="M548 6947 c-25 -6 -38 -15 -38 -26 0 -9 23 -54 50 -101 28 -47 53
-101 56 -120 4 -19 9 -39 13 -45 3 -5 7 -18 8 -29 4 -22 35 -76 44 -76 4 0 28
-20 54 -45 39 -36 51 -43 66 -34 19 10 23 27 20 86 -1 17 3 34 9 38 6 3 8 10
6 14 -10 16 26 107 52 131 68 65 74 95 28 147 -49 57 -82 68 -211 68 -66 1
-137 -3 -157 -8z"/>
        <path d="M3180 6798 c0 -7 5 -42 10 -78 5 -36 12 -99 16 -140 3 -41 13 -87 20
-102 8 -15 14 -37 15 -50 0 -13 4 -32 8 -43 8 -19 8 -19 19 2 7 12 14 63 16
114 3 50 9 95 14 98 5 3 12 19 16 35 6 25 5 28 -7 17 -17 -13 -33 1 -22 19 7
11 -34 89 -63 123 -18 20 -42 23 -42 5z"/>
        <path d="M8792 6419 c-16 -3 -34 -9 -40 -12 -5 -4 -12 -2 -14 5 -3 7 -9 8 -19
2 -8 -5 -17 -9 -21 -10 -5 -1 -11 -3 -15 -4 -9 -4 -48 -6 -207 -14 -137 -6
-151 -16 -147 -101 2 -54 0 -60 -43 -113 -25 -31 -54 -67 -65 -78 -11 -12 -17
-25 -14 -28 10 -10 -30 -42 -79 -65 -48 -22 -102 -28 -130 -16 -11 4 -18 3
-18 -4 0 -6 -6 -11 -14 -11 -7 0 -26 -20 -42 -45 -15 -25 -33 -45 -40 -45 -7
0 -14 -3 -16 -7 -4 -10 -111 -83 -121 -83 -4 0 -20 -11 -35 -25 -31 -29 -82
-55 -120 -61 -15 -3 -42 -10 -61 -16 -19 -6 -57 -8 -88 -4 -39 5 -62 2 -84
-10 -40 -20 -56 -7 -41 33 9 26 8 29 -12 29 -11 -1 -31 -10 -44 -21 -13 -11
-40 -25 -61 -31 -33 -10 -49 -8 -112 12 -41 13 -75 24 -77 24 -5 0 -34 -72
-30 -75 27 -23 86 -39 156 -43 45 -2 82 -8 82 -13 0 -20 -25 -59 -41 -64 -10
-3 -30 -21 -44 -39 -28 -36 -157 -102 -175 -91 -5 3 -10 0 -11 -7 0 -7 -2 -22
-5 -33 -30 -146 -18 -430 20 -471 13 -14 54 2 74 29 8 10 18 14 25 10 17 -11
57 -11 50 0 -3 5 3 8 13 6 27 -3 75 12 69 22 -6 9 84 -19 100 -32 6 -4 17 -4
24 1 16 9 42 -3 78 -39 16 -15 28 -20 34 -14 13 13 75 -44 71 -63 -2 -8 3 -14
10 -14 10 0 12 -15 10 -52 -1 -29 -3 -61 -3 -70 0 -9 -7 -19 -15 -22 -8 -3
-14 -11 -14 -18 0 -16 -60 -58 -83 -58 -9 0 -17 -7 -17 -16 0 -8 -4 -13 -10
-9 -5 3 -8 11 -6 18 1 7 1 9 -1 4 -3 -4 -9 -5 -13 -2 -5 3 -12 0 -16 -6 -4 -7
-3 -9 4 -5 6 3 13 2 17 -4 3 -5 2 -10 -4 -10 -8 0 -7 -40 1 -44 2 0 18 -9 36
-19 17 -10 37 -15 42 -12 6 3 10 2 10 -2 0 -5 14 -10 32 -11 18 -2 35 -6 38
-10 5 -7 23 -11 70 -16 14 -1 31 -6 39 -10 13 -8 107 -9 196 -3 28 3 55 0 62
-5 6 -5 28 -11 49 -14 20 -2 55 -13 78 -24 23 -11 33 -18 24 -16 -12 4 -15 0
-11 -10 3 -8 -1 -14 -8 -15 -8 0 0 -7 16 -14 17 -7 33 -11 38 -8 4 2 7 -1 7
-6 0 -6 4 -11 10 -11 17 0 49 -33 43 -43 -3 -6 -1 -7 6 -3 6 4 19 2 28 -6 14
-11 16 -11 9 2 -4 8 2 4 13 -9 12 -13 32 -23 46 -23 14 0 25 -4 25 -9 0 -4 16
-11 36 -15 19 -4 38 -13 41 -20 3 -8 9 -14 15 -14 5 0 7 4 4 8 -3 5 18 3 47
-5 28 -7 70 -13 93 -13 62 0 134 -12 129 -21 -3 -4 -1 -10 5 -14 5 -3 10 -2
10 4 0 5 18 1 40 -10 22 -11 43 -18 47 -18 8 2 21 -3 83 -29 19 -8 38 -14 43
-13 4 0 12 -10 17 -25 6 -14 14 -22 20 -19 5 3 10 1 10 -5 0 -7 8 -9 21 -5 12
4 24 3 28 -1 10 -15 72 -56 87 -58 8 -1 20 -9 26 -18 7 -9 27 -19 43 -23 42
-12 44 -12 50 -15 3 -1 8 -3 13 -4 4 -1 12 -4 17 -7 6 -4 19 -3 30 1 13 5 27
0 45 -17 13 -12 30 -23 37 -23 7 0 14 -7 14 -15 1 -8 3 -19 4 -25 1 -5 3 -20
5 -32 1 -13 4 -17 7 -10 4 10 8 10 19 1 12 -10 13 -9 8 6 -5 13 -2 16 12 13
13 -2 28 8 45 32 44 60 152 100 273 100 56 0 109 -26 85 -41 -10 -6 -9 -13 6
-30 27 -31 31 -36 67 -92 30 -47 31 -54 32 -156 1 -62 -4 -118 -10 -132 -7
-13 -21 -47 -32 -75 -17 -45 -18 -55 -6 -75 7 -13 17 -32 20 -41 3 -10 10 -18
15 -18 17 0 9 -29 -8 -33 -20 -4 -9 -11 39 -21 26 -6 138 -100 138 -117 0 -5
-7 -9 -16 -9 -8 0 -12 5 -8 11 5 8 1 8 -14 0 -27 -14 -161 7 -282 44 -47 14
-121 32 -165 41 -194 37 -343 83 -445 138 -95 52 -545 212 -855 305 -179 54
-479 126 -569 136 l-59 7 -219 219 c-127 127 -225 234 -233 253 -21 49 -134
196 -151 196 -20 0 -19 -86 3 -164 23 -85 22 -309 -1 -436 -19 -102 -51 -233
-66 -265 -16 -36 -77 -258 -94 -340 -9 -44 -23 -135 -31 -203 -8 -67 -21 -148
-31 -180 -39 -138 -98 -308 -108 -314 -6 -5 -7 -8 -1 -8 6 0 2 -5 -8 -11 -9
-6 -15 -14 -13 -18 3 -4 -1 -8 -9 -8 -8 0 -13 3 -12 6 1 3 -3 6 -8 6 -5 0 -9
-4 -7 -9 2 -5 -3 -4 -11 2 -16 13 -28 6 -21 -12 3 -7 -2 -13 -10 -13 -8 0 -13
4 -10 8 3 5 -12 25 -32 46 -20 21 -32 31 -26 23 10 -15 12 -21 12 -40 0 -5 6
-10 13 -10 8 0 14 -7 14 -15 0 -13 -2 -13 -17 0 -19 17 -45 21 -35 5 3 -5 2
-10 -4 -10 -5 0 -8 -9 -6 -21 3 -17 1 -19 -10 -9 -7 6 -16 7 -19 2 -8 -13 23
-52 42 -52 12 0 13 -3 4 -12 -10 -10 -16 -7 -28 10 -8 12 -22 22 -30 22 -12 0
-13 -4 -3 -23 l12 -22 -23 20 -23 20 6 -23 c4 -18 3 -21 -8 -12 -8 7 -15 7
-19 1 -8 -13 33 -41 50 -34 8 3 14 0 14 -6 0 -6 -3 -10 -7 -10 -20 3 -23 -2
-11 -15 7 -8 24 -28 37 -45 24 -33 48 -33 31 -1 -7 13 -7 21 0 25 6 4 7 12 4
18 -4 7 5 1 19 -12 15 -14 27 -27 27 -29 0 -3 -9 3 -19 12 -11 10 -22 13 -25
8 -3 -6 0 -12 6 -15 10 -3 10 -9 1 -24 -9 -16 -8 -24 5 -39 10 -10 13 -16 8
-11 -6 4 -17 7 -25 6 -11 0 -12 -2 -3 -6 6 -2 12 -9 12 -15 0 -6 -7 -8 -15 -4
-13 4 -13 2 -5 -14 12 -23 13 -33 1 -26 -5 4 -7 -3 -4 -14 3 -11 10 -20 17
-20 6 0 4 -5 -4 -10 -13 -9 -11 -13 10 -31 38 -31 62 -38 78 -23 7 8 10 18 7
24 -8 13 1 13 25 0 13 -7 21 -7 25 0 3 5 1 10 -6 10 -7 0 -10 2 -7 5 3 3 13 3
22 -1 12 -4 15 -14 10 -38 -3 -17 -18 -103 -34 -191 -15 -88 -42 -241 -60
-340 -18 -99 -34 -190 -36 -203 -4 -20 -9 -22 -42 -18 -20 3 -38 5 -39 7 -2 1
-6 2 -10 3 -5 1 -14 5 -21 10 -7 4 -16 5 -19 2 -3 -3 -12 -1 -20 5 -7 6 -13 8
-13 4 0 -4 -6 -2 -14 4 -8 6 -18 11 -22 10 -5 -1 -16 0 -24 4 -8 3 -71 22
-140 42 -69 20 -139 43 -157 51 -17 7 -36 14 -41 14 -23 0 -254 117 -260 133
-2 4 -10 7 -17 7 -7 0 -15 3 -17 7 -4 10 -107 73 -119 73 -5 0 -9 5 -9 10 0 6
-7 10 -15 10 -8 0 -15 5 -15 10 0 6 -7 10 -15 10 -8 0 -15 5 -15 11 0 15 -76
1 -123 -22 -20 -11 -49 -33 -63 -49 -15 -16 -38 -31 -53 -34 -63 -13 -141 -20
-207 -17 -67 2 -73 1 -93 -25 -20 -26 -29 -74 -13 -74 4 0 16 6 27 13 36 24
54 27 54 9 3 -71 9 -102 24 -117 9 -9 14 -21 11 -27 -5 -7 -2 -8 6 -3 10 6 12
4 7 -9 -5 -14 -3 -17 8 -12 8 3 15 2 15 -3 0 -15 52 -36 82 -32 16 1 35 -2 42
-8 9 -7 23 -5 52 10 21 12 41 25 42 30 2 5 8 9 14 9 15 0 38 27 30 35 -4 5 3
6 15 3 12 -3 24 -1 26 6 3 8 10 8 26 -2 12 -7 26 -10 31 -7 5 3 11 1 15 -5 3
-5 0 -10 -8 -10 -21 0 -17 -26 5 -27 10 -1 18 1 18 5 0 4 9 13 19 19 19 12 19
11 4 -43 -9 -30 -14 -57 -11 -59 3 -3 17 1 31 8 21 11 24 16 14 26 -9 10 -6
10 17 1 27 -10 28 -9 15 7 -10 12 -10 15 -1 9 7 -4 27 -9 45 -10 18 -2 43 -6
57 -10 19 -6 22 -5 10 3 -12 9 -10 11 10 9 14 -2 28 -7 32 -13 5 -7 8 -7 8 0
0 6 18 11 40 11 22 1 40 -2 40 -7 0 -5 12 -4 27 2 15 6 42 8 60 4 24 -4 33 -2
33 7 0 8 4 6 11 -4 7 -13 17 -16 41 -11 22 4 29 3 24 -5 -5 -9 0 -9 18 -2 16
6 26 6 26 0 0 -5 9 -7 20 -5 14 3 20 -2 20 -13 0 -15 2 -15 10 -2 8 12 10 12
11 -5 0 -11 3 -14 6 -7 2 6 9 10 14 6 5 -3 9 0 9 5 0 6 5 11 11 11 5 0 7 -4 4
-10 -4 -7 3 -7 20 0 14 5 24 6 21 1 -10 -15 29 -19 43 -4 8 8 16 11 20 6 6 -9
67 -9 141 0 99 12 139 -41 69 -91 -21 -15 -37 -33 -34 -40 3 -7 0 -10 -5 -7
-6 4 -23 -4 -38 -16 -15 -12 -19 -19 -9 -16 9 4 17 2 17 -2 0 -12 -29 -23 -41
-16 -5 4 -6 -2 -2 -11 5 -13 3 -16 -10 -11 -11 4 -17 1 -17 -8 0 -19 -39 -45
-57 -38 -13 5 -13 3 -3 -17 8 -16 9 -20 1 -15 -14 8 -41 -12 -37 -28 1 -7 1
-9 -1 -4 -8 14 -25 7 -19 -8 4 -12 2 -13 -13 -5 -15 7 -20 6 -25 -7 -4 -9 -4
-18 -1 -21 3 -3 5 0 5 6 0 7 5 12 10 12 16 0 12 -17 -6 -24 -8 -3 -24 -1 -35
5 -19 10 -20 9 -9 -11 11 -20 10 -21 -12 -10 -19 10 -21 10 -10 -1 15 -16 16
-33 2 -24 -15 9 -40 -13 -34 -29 6 -15 -22 -29 -38 -20 -5 4 -5 -3 2 -16 11
-20 10 -21 -10 -10 -16 9 -25 8 -36 -1 -13 -10 -12 -14 3 -32 17 -20 17 -20
-1 -14 -21 8 -46 -8 -42 -26 1 -7 1 -9 -1 -5 -9 15 -25 8 -19 -8 5 -12 2 -15
-10 -10 -20 7 -67 -31 -57 -47 8 -14 -19 -27 -42 -21 -19 5 -19 4 -2 -9 25
-20 21 -28 -9 -17 -18 7 -23 7 -18 -1 3 -6 -3 -17 -14 -25 -14 -10 -19 -20
-15 -32 6 -16 6 -16 -11 1 -19 19 -31 23 -21 7 3 -6 -1 -13 -9 -16 -9 -3 -13
-10 -10 -16 3 -5 13 -4 22 4 15 11 15 11 5 -3 -7 -9 -9 -19 -5 -24 4 -4 -3 -2
-16 4 -19 10 -27 9 -50 -10 -15 -12 -19 -19 -9 -16 9 4 17 2 17 -3 0 -6 -5
-10 -12 -10 -6 0 -8 -3 -5 -7 4 -3 -10 -12 -30 -19 -44 -16 -53 -13 -18 6 14
7 25 18 25 23 0 5 -23 -7 -50 -27 -28 -20 -54 -36 -59 -36 -17 0 -23 -21 -10
-36 6 -8 9 -17 5 -21 -3 -3 -6 -1 -6 6 0 7 -4 9 -10 6 -5 -3 -10 -1 -10 4 0
14 -27 14 -35 1 -3 -6 1 -7 9 -4 25 9 19 -12 -6 -25 l-23 -11 24 6 c20 5 23 3
17 -11 -3 -10 -1 -24 5 -31 10 -12 8 -13 -7 -8 -10 4 -16 4 -12 0 9 -10 59
-16 82 -9 15 4 16 7 5 14 -7 4 -10 11 -6 15 4 4 16 -1 27 -11 11 -10 23 -15
27 -12 3 4 2 7 -4 7 -6 0 -14 7 -17 16 -4 10 -2 13 6 8 6 -4 26 -8 44 -9 36
-1 36 16 1 34 -22 11 -22 11 2 5 19 -5 23 -3 18 10 -5 14 -3 15 13 6 26 -14
30 -13 23 8 -5 14 -4 15 8 6 8 -6 28 -11 46 -11 27 0 29 2 17 14 -20 20 -17
26 5 13 25 -13 42 -13 19 1 -25 14 -23 32 2 19 11 -6 20 -7 20 -2 0 5 -10 14
-22 20 -15 7 -18 11 -8 11 9 1 27 -7 40 -16 25 -16 25 -16 7 3 -23 27 -22 33
6 27 21 -4 21 -3 -3 11 -14 8 -20 15 -15 16 6 0 19 -6 30 -13 11 -8 29 -17 40
-21 16 -5 14 -2 -7 16 -14 13 -35 29 -45 35 -15 10 -13 11 11 3 24 -9 27 -8
22 5 -4 12 3 11 37 -5 24 -12 34 -14 23 -6 -10 8 -24 17 -30 20 -7 3 -6 8 3
14 7 5 10 15 6 21 -4 7 16 -2 45 -20 28 -17 53 -29 56 -26 3 3 -4 8 -15 12
-12 3 -21 10 -21 15 0 5 -9 11 -19 15 -11 3 -22 12 -25 20 -4 13 -1 12 19 -1
15 -10 25 -12 25 -5 0 6 -4 11 -10 11 -5 0 -10 5 -10 10 0 8 6 8 17 1 10 -5
18 -17 18 -27 0 -9 6 -18 13 -20 7 -1 8 0 2 3 -19 9 -10 24 11 18 19 -6 20 -5
8 8 -8 8 -16 14 -19 12 -3 -1 -14 6 -24 16 -26 26 -17 24 38 -7 26 -15 50 -24
53 -20 4 3 1 6 -5 6 -6 0 -17 6 -24 13 -7 7 -22 19 -33 26 -19 12 -19 12 -1 6
11 -3 23 0 27 6 5 9 17 6 43 -9 20 -12 36 -18 36 -13 0 5 -13 14 -30 21 -33
14 -38 25 -14 34 8 3 13 2 10 -2 -2 -4 9 -15 25 -24 16 -10 29 -13 29 -9 0 4
-10 13 -22 20 l-23 11 23 -6 c12 -3 22 -1 22 5 0 6 -5 11 -12 11 -6 0 -9 2 -6
5 8 9 38 -6 32 -16 -3 -5 3 -6 12 -2 11 4 13 8 6 11 -25 8 -11 22 16 16 26 -6
26 -6 7 10 -19 16 -19 16 10 10 29 -6 29 -6 10 9 -19 16 -19 16 5 11 20 -5 22
-3 10 5 -12 9 -10 11 10 11 20 0 22 2 10 10 -12 8 -10 10 9 10 13 0 22 3 18 6
-3 3 4 17 16 29 12 13 38 45 57 72 52 72 122 154 127 149 8 -8 -18 -145 -28
-152 -5 -3 -7 -9 -4 -14 3 -5 0 -21 -7 -37 -6 -15 -12 -33 -13 -39 0 -6 -6
-19 -14 -28 -8 -9 -11 -19 -7 -23 3 -4 -6 -20 -21 -36 -22 -24 -24 -29 -9 -23
19 6 19 6 3 -12 -9 -10 -14 -22 -10 -25 3 -4 -1 -15 -10 -25 -10 -10 -14 -22
-10 -25 4 -4 -9 -23 -27 -42 -19 -19 -31 -35 -28 -35 4 0 14 7 23 16 18 18 32
13 19 -8 -5 -7 -9 -19 -10 -26 -3 -19 -13 -27 -21 -18 -4 4 -1 12 7 17 13 9
13 10 0 6 -8 -2 -15 -11 -15 -19 0 -8 -6 -23 -14 -32 -12 -14 -12 -16 3 -10
23 9 20 -3 -9 -33 -13 -15 -22 -29 -19 -32 3 -3 9 1 14 8 5 10 8 6 7 -11 -1
-16 -7 -24 -15 -21 -8 4 -10 0 -6 -11 5 -13 2 -15 -12 -9 -18 7 -18 6 -1 -11
21 -21 22 -27 3 -20 -19 7 -29 -12 -17 -34 11 -20 -1 -48 -17 -39 -5 4 -8 -5
-6 -23 3 -24 1 -28 -14 -23 -16 6 -16 6 1 -11 19 -20 23 -31 6 -20 -17 10 -29
-17 -18 -39 7 -13 7 -23 -2 -33 -10 -12 256 -14 2020 -14 l2031 0 0 1938 c0
1065 -4 1943 -9 1951 -6 9 -11 10 -15 2 -5 -8 -13 -8 -26 -1 -10 6 -31 11 -46
12 -15 2 -32 11 -38 20 -7 12 -23 18 -45 18 -19 0 -54 11 -77 25 -24 14 -47
26 -51 26 -16 0 -59 11 -84 22 -15 6 -41 35 -60 66 -18 31 -49 74 -69 96 -20
22 -40 48 -43 58 -4 9 -16 17 -27 17 -12 0 -19 4 -16 9 3 5 -9 7 -27 5 -17 -1
-38 -3 -44 -3 -7 -1 -13 -8 -13 -16 0 -22 -27 -18 -44 6 -8 12 -19 18 -24 15
-6 -3 -12 1 -16 9 -3 8 -1 15 5 15 6 0 7 5 4 10 -4 6 -11 8 -16 5 -9 -6 -10
-5 -14 33 -1 13 -11 36 -22 50 -33 47 -45 90 -45 164 0 132 3 147 32 178 15
17 26 30 23 30 -7 0 27 51 58 87 36 43 114 76 159 68 41 -7 85 7 109 34 9 11
52 29 96 41 215 57 225 61 274 101 21 16 53 38 72 48 l34 18 3 264 c1 145 0
270 -3 277 -4 11 -9 11 -19 3 -7 -6 -16 -8 -19 -4 -4 3 -7 2 -7 -4 0 -11 -56
-11 -67 0 -3 4 -11 -1 -18 -10 -14 -19 -47 -26 -56 -12 -4 7 -12 5 -21 -5 -17
-17 -28 -11 -28 14 0 10 -8 17 -17 17 -99 0 -100 0 -118 48 -10 25 -26 47 -36
50 -11 4 -26 23 -35 43 -23 56 -51 78 -84 65 -25 -9 -29 -7 -46 24 -10 19 -36
54 -59 77 -22 23 -47 53 -55 65 -13 20 -26 24 -75 26 -86 4 -85 4 -81 18 1 6
1 9 -1 5 -7 -13 -31 -9 -36 5 -4 9 -7 9 -17 0 -11 -10 -18 -8 -35 11 -18 20
-30 23 -82 21 -46 -2 -63 1 -67 12 -3 8 -10 12 -15 8 -6 -3 -13 0 -18 8 -10
16 -63 50 -63 40 0 -5 -4 -3 -8 2 -4 6 -20 16 -35 23 -15 7 -25 17 -22 22 3 6
1 10 -5 10 -21 0 -38 26 -35 53 2 15 -1 27 -6 27 -5 0 -9 6 -9 13 0 7 -9 23
-21 35 -21 23 -55 26 -127 11z m-1405 -1903 c0 -8 -6 -12 -15 -9 -11 5 -11 7
0 14 7 5 13 9 14 9 0 0 1 -6 1 -14z m1899 -672 c1 -9 0 -13 -4 -10 -3 4 -7 14
-8 22 -1 9 0 13 4 10 3 -4 7 -14 8 -22z m-2753 -1425 c4 -16 3 -18 -9 -8 -16
13 -19 29 -5 29 5 0 11 -9 14 -21z m27 -39 c0 -5 -2 -10 -4 -10 -3 0 -8 5 -11
10 -3 6 -1 10 4 10 6 0 11 -4 11 -10z m-10 -85 c13 -14 19 -25 14 -25 -8 1
-50 50 -41 50 2 0 14 -11 27 -25z m5 -95 c3 -5 1 -10 -4 -10 -6 0 -11 5 -11
10 0 6 2 10 4 10 3 0 8 -4 11 -10z m-4 -87 c13 -16 12 -17 -3 -4 -10 7 -18 15
-18 17 0 8 8 3 21 -13z m-5 -35 l19 -21 -27 18 c-29 18 -34 25 -20 25 5 0 17
-10 28 -22z m44 -63 c0 -10 -16 -4 -40 16 l-25 20 33 -16 c17 -8 32 -18 32
-20z m-1140 -640 c7 -8 9 -15 6 -15 -4 0 -14 7 -22 15 -9 8 -11 15 -6 15 5 0
15 -7 22 -15z m176 -92 c-6 -6 -36 9 -36 18 0 5 9 4 20 -3 10 -7 18 -14 16
-15z m498 -469 c3 -8 2 -12 -4 -9 -6 3 -10 10 -10 16 0 14 7 11 14 -7z m-81
-68 c4 -10 0 -12 -14 -9 -10 3 -16 9 -13 14 8 13 21 11 27 -5z m-123 -121 c11
-13 10 -14 -4 -9 -9 3 -16 10 -16 15 0 13 6 11 20 -6z m-72 -100 c-3 -3 -9 2
-12 12 -6 14 -5 15 5 6 7 -7 10 -15 7 -18z m-25 1 c4 -10 1 -13 -9 -9 -15 6
-19 23 -5 23 5 0 11 -7 14 -14z m58 -13 c13 -16 12 -17 -3 -4 -17 13 -22 21
-14 21 2 0 10 -8 17 -17z m-103 -138 c-3 -3 -9 2 -12 12 -6 14 -5 15 5 6 7 -7
10 -15 7 -18z m-158 -17 c0 -5 -7 -3 -15 6 -8 8 -15 18 -15 22 0 3 7 1 15 -6
8 -7 15 -17 15 -22z m30 22 c0 -5 -5 -10 -11 -10 -5 0 -7 5 -4 10 3 6 8 10 11
10 2 0 4 -4 4 -10z m110 -16 c0 -2 -9 0 -20 6 -11 6 -20 13 -20 16 0 2 9 0 20
-6 11 -6 20 -13 20 -16z m-169 -8 c5 3 9 0 9 -6 0 -7 -8 -9 -20 -5 -16 5 -19
3 -13 -12 6 -17 6 -17 -10 -1 -9 9 -17 19 -17 22 0 8 35 12 38 4 2 -5 8 -6 13
-2z m164 -16 c3 -5 2 -10 -4 -10 -5 0 -13 5 -16 10 -3 6 -2 10 4 10 5 0 13 -4
16 -10z m-177 -61 c-7 -5 -22 -6 -33 -3 -17 4 -16 2 5 -15 14 -11 20 -21 14
-21 -19 0 -56 38 -42 42 24 8 70 5 56 -3z m72 1 c0 -5 -5 -10 -11 -10 -5 0 -7
5 -4 10 3 6 8 10 11 10 2 0 4 -4 4 -10z m605 -60 c3 -5 1 -10 -4 -10 -6 0 -11
5 -11 10 0 6 2 10 4 10 3 0 8 -4 11 -10z"/>
        <path d="M7065 6198 c-2 -7 -9 -31 -14 -53 -5 -22 -13 -50 -17 -63 -5 -18 -3
-21 10 -16 9 3 16 17 16 31 0 14 9 38 21 54 20 29 20 59 -1 59 -6 0 -13 -6
-15 -12z"/>
        <path d="M7302 6150 c-13 -27 -27 -50 -32 -50 -13 0 -50 -37 -50 -50 0 -21 37
-9 67 23 33 33 53 74 53 108 0 33 -14 21 -38 -31z"/>
        <path d="M6956 6123 c-3 -3 -6 -24 -6 -47 0 -45 14 -39 25 11 6 29 -5 50 -19
36z"/>
        <path d="M6785 6049 c-9 -14 -2 -20 14 -10 8 6 9 11 3 15 -6 3 -14 1 -17 -5z"/>
        <path d="M6526 5991 c-4 -5 -2 -12 3 -15 5 -4 12 -2 15 3 4 5 2 12 -3 15 -5 4
-12 2 -15 -3z"/>
        <path d="M6565 5970 c-3 -5 -1 -10 4 -10 6 0 11 5 11 10 0 6 -2 10 -4 10 -3 0
-8 -4 -11 -10z"/>
        <path d="M6859 5956 c4 -6 11 -18 14 -26 3 -8 5 -3 4 11 -1 14 -7 26 -14 26
-8 0 -9 -5 -4 -11z"/>
        <path d="M6830 5940 c0 -5 7 -10 16 -10 8 0 12 5 9 10 -3 6 -10 10 -16 10 -5
0 -9 -4 -9 -10z"/>
        <path d="M6875 5827 c-11 -14 -8 -57 5 -57 4 0 6 9 3 20 -3 11 0 27 7 35 7 8
9 15 4 15 -5 -1 -14 -6 -19 -13z"/>
        <path d="M3975 5719 c-4 -6 -5 -12 -2 -15 2 -3 7 2 10 11 7 17 1 20 -8 4z"/>
        <path d="M6836 5575 c-3 -8 -1 -15 4 -15 6 0 10 7 10 15 0 8 -2 15 -4 15 -2 0
-6 -7 -10 -15z"/>
        <path d="M6856 5543 c-6 -14 -5 -15 5 -6 7 7 10 15 7 18 -3 3 -9 -2 -12 -12z"/>
        <path d="M5647 5493 c-10 -9 -9 -23 1 -23 5 0 9 7 9 15 0 17 -1 18 -10 8z"/>
        <path d="M6903 5425 c0 -8 4 -15 9 -15 4 0 8 4 8 9 0 6 -4 12 -8 15 -5 3 -9
-1 -9 -9z"/>
        <path d="M4916 5361 c-4 -7 -5 -15 -2 -18 9 -9 19 4 14 18 -4 11 -6 11 -12 0z"/>
        <path d="M5740 5129 c0 -5 5 -7 10 -4 6 3 10 8 10 11 0 2 -4 4 -10 4 -5 0 -10
-5 -10 -11z"/>
        <path d="M5925 5130 c3 -5 11 -10 16 -10 6 0 7 5 4 10 -3 6 -11 10 -16 10 -6
0 -7 -4 -4 -10z"/>
        <path d="M5437 5109 c7 -7 15 -10 18 -7 3 3 -2 9 -12 12 -14 6 -15 5 -6 -5z"/>
        <path d="M5710 5020 c0 -5 5 -10 10 -10 6 0 10 5 10 10 0 6 -4 10 -10 10 -5 0
-10 -4 -10 -10z"/>
        <path d="M6061 4924 c0 -11 3 -14 6 -6 3 7 2 16 -1 19 -3 4 -6 -2 -5 -13z"/>
        <path d="M5981 4841 c-7 -5 -12 -14 -10 -20 3 -6 9 -7 18 -2 7 5 12 14 10 20
-3 6 -9 7 -18 2z"/>
        <path d="M4955 4690 c-3 -5 1 -10 10 -10 9 0 13 5 10 10 -3 6 -8 10 -10 10 -2
0 -7 -4 -10 -10z"/>
        <path d="M5455 4560 c-3 -5 -1 -10 4 -10 6 0 11 5 11 10 0 6 -2 10 -4 10 -3 0
-8 -4 -11 -10z"/>
        <path d="M6123 4543 c-15 -5 -17 -23 -4 -23 5 0 11 7 15 15 3 8 4 15 3 14 -1
0 -8 -3 -14 -6z"/>
        <path d="M7040 4485 c0 -8 4 -15 10 -15 5 0 7 7 4 15 -4 8 -8 15 -10 15 -2 0
-4 -7 -4 -15z"/>
        <path d="M5800 4245 c0 -8 2 -15 4 -15 2 0 6 7 10 15 3 8 1 15 -4 15 -6 0 -10
-7 -10 -15z"/>
        <path d="M9516 4248 c3 -5 10 -6 15 -3 13 9 11 12 -6 12 -8 0 -12 -4 -9 -9z"/>
        <path d="M5635 4200 c-3 -5 -1 -10 4 -10 6 0 11 5 11 10 0 6 -2 10 -4 10 -3 0
-8 -4 -11 -10z"/>
        <path d="M5010 4136 c0 -9 30 -14 35 -6 4 6 -3 10 -14 10 -12 0 -21 -2 -21 -4z"/>
        <path d="M0 3860 c0 -171 2 -200 15 -201 8 -1 21 -2 28 -3 6 -2 26 5 42 15 17
9 36 14 43 12 8 -3 32 3 53 13 28 12 43 14 50 7 15 -15 47 -4 54 18 4 10 10
19 15 19 4 0 8 6 7 13 -1 39 4 48 25 45 13 -2 23 2 23 8 0 6 8 18 18 28 18 18
24 56 8 56 -5 0 -12 11 -15 25 -4 14 -13 25 -20 25 -9 0 -12 7 -9 20 4 14 1
20 -8 18 -8 -2 -13 3 -11 10 5 24 -32 48 -78 51 -37 2 -51 -3 -77 -26 -50 -45
-127 -35 -138 18 -16 74 -25 15 -25 -171z"/>
        <path d="M6580 4030 c-13 -8 -12 -10 3 -10 9 0 17 5 17 10 0 12 -1 12 -20 0z"/>
        <path d="M4702 3943 c-6 -2 -10 -9 -6 -14 8 -14 21 -11 28 6 6 15 1 17 -22 8z"/>
        <path d="M6946 3893 c-6 -14 -5 -15 5 -6 7 7 10 15 7 18 -3 3 -9 -2 -12 -12z"/>
        <path d="M6930 3848 c-6 -13 -14 -30 -19 -38 -27 -45 -94 -194 -96 -213 -4
-36 -5 -38 -13 -33 -4 2 -9 -7 -10 -22 -1 -14 -13 -42 -26 -62 -13 -19 -47
-80 -76 -134 -29 -55 -64 -111 -77 -125 -13 -14 -33 -42 -43 -61 -10 -19 -30
-48 -44 -63 -14 -15 -26 -34 -26 -42 0 -7 -7 -21 -16 -30 -21 -21 -58 -75 -67
-97 -3 -10 -11 -18 -18 -18 -6 0 -8 -7 -5 -15 3 -9 -1 -18 -9 -21 -8 -4 -13
-10 -10 -14 3 -4 -1 -13 -9 -19 -7 -6 -19 -31 -26 -55 -8 -30 -17 -43 -28 -42
-13 1 -16 -6 -14 -26 2 -17 -3 -30 -15 -37 -10 -6 -12 -11 -5 -11 14 0 17 -40
3 -40 -9 0 -23 -44 -19 -57 2 -5 7 -7 11 -5 5 1 0 -9 -10 -23 -10 -13 -24 -22
-32 -20 -9 4 -12 -1 -8 -15 3 -11 -1 -27 -10 -35 -14 -15 -10 -35 7 -35 5 0
40 32 77 72 37 39 85 90 107 112 44 46 122 160 155 224 22 43 45 105 103 277
44 133 156 412 183 459 21 37 58 135 91 244 14 45 10 57 -6 20z"/>
        <path d="M6525 3820 c-3 -5 -1 -10 4 -10 6 0 11 5 11 10 0 6 -2 10 -4 10 -3 0
-8 -4 -11 -10z"/>
        <path d="M6485 3800 c-17 -18 -17 -20 -1 -20 9 0 19 7 23 15 9 25 -2 27 -22 5z"/>
        <path d="M6426 3762 c-3 -5 1 -9 9 -9 8 0 12 4 9 9 -3 4 -7 8 -9 8 -2 0 -6 -4
-9 -8z"/>
        <path d="M6481 3748 c-1 -9 -9 -22 -18 -27 -10 -6 -13 -11 -7 -11 17 0 37 27
31 42 -4 8 -6 7 -6 -4z"/>
        <path d="M3985 3573 c3 -12 8 -31 10 -42 9 -50 102 -266 170 -396 116 -225
166 -307 348 -572 106 -155 276 -363 296 -363 10 0 7 72 -3 88 -4 7 -2 20 3
31 8 14 8 21 -2 24 -6 3 -3 6 8 6 17 1 17 3 5 11 -8 5 -16 17 -17 27 -1 10 -5
28 -9 41 -5 19 -3 21 12 15 14 -5 13 -2 -4 15 -12 12 -22 27 -22 32 0 6 -9 21
-20 32 -11 12 -16 24 -11 27 16 11 2 44 -33 80 -19 20 -59 61 -89 92 -30 31
-58 65 -61 77 -4 11 -19 25 -34 31 -15 6 -45 35 -67 65 -22 29 -74 93 -117
142 -42 49 -91 110 -110 136 -18 26 -56 81 -85 121 -29 41 -80 126 -113 188
-34 63 -59 104 -55 92z"/>
        <path d="M6355 3500 c-3 -5 -1 -10 4 -10 6 0 11 5 11 10 0 6 -2 10 -4 10 -3 0
-8 -4 -11 -10z"/>
        <path d="M6226 3363 c-6 -14 -5 -15 5 -6 7 7 10 15 7 18 -3 3 -9 -2 -12 -12z"/>
        <path d="M4990 3359 c0 -5 9 -9 20 -9 11 0 20 2 20 4 0 2 -9 6 -20 9 -11 3
-20 1 -20 -4z"/>
        <path d="M6130 3346 c0 -2 7 -6 15 -10 8 -3 15 -1 15 4 0 6 -7 10 -15 10 -8 0
-15 -2 -15 -4z"/>
        <path d="M6245 3310 c-3 -5 -1 -10 4 -10 6 0 11 5 11 10 0 6 -2 10 -4 10 -3 0
-8 -4 -11 -10z"/>
        <path d="M5750 2935 c-8 -9 -8 -15 -2 -15 12 0 26 19 19 26 -2 2 -10 -2 -17
-11z"/>
        <path d="M5226 2926 c3 -8 12 -12 20 -9 17 6 9 23 -11 23 -8 0 -12 -6 -9 -14z"/>
        <path d="M5290 2880 c0 -6 7 -10 15 -10 8 0 15 2 15 4 0 2 -7 6 -15 10 -8 3
-15 1 -15 -4z"/>
        <path d="M5480 2827 c0 -10 7 -20 15 -23 8 -4 12 -10 9 -15 -9 -15 25 -10 51
7 14 9 25 22 25 30 0 10 -7 10 -37 -2 -34 -15 -38 -15 -50 2 -12 17 -13 17
-13 1z"/>
        <path d="M6610 2550 c0 -5 5 -10 11 -10 5 0 7 5 4 10 -3 6 -8 10 -11 10 -2 0
-4 -4 -4 -10z"/>
        <path d="M6565 2520 c-4 -6 -11 -7 -17 -4 -15 9 7 -30 26 -45 8 -7 17 -8 20
-3 3 6 -1 15 -9 22 -8 7 -15 18 -15 24 1 6 11 -2 24 -18 16 -19 26 -24 31 -16
8 13 -22 50 -41 50 -7 0 -16 -5 -19 -10z"/>
        <path d="M6645 2500 c3 -5 11 -10 16 -10 6 0 7 5 4 10 -3 6 -11 10 -16 10 -6
0 -7 -4 -4 -10z"/>
        <path d="M6380 2310 c12 -8 12 -10 -3 -16 -16 -6 -15 -8 4 -35 11 -16 25 -29
31 -29 6 0 4 8 -5 18 -10 10 -17 22 -17 26 0 4 12 -6 26 -23 14 -17 33 -31 41
-31 10 0 0 17 -27 50 -23 28 -47 50 -53 50 -7 0 -6 -4 3 -10z"/>
        <path d="M6369 2233 c12 -23 29 -38 37 -31 2 3 -8 15 -22 29 -25 23 -26 23
-15 2z"/>
        <path d="M6426 2206 c3 -9 11 -16 16 -16 13 0 5 23 -10 28 -7 2 -10 -2 -6 -12z"/>
        <path d="M6476 2195 c25 -19 40 -19 24 0 -7 8 -20 15 -28 15 -13 0 -12 -3 4
-15z"/>
        <path d="M6355 2160 c10 -11 20 -20 23 -20 3 0 -3 9 -13 20 -10 11 -20 20 -23
20 -3 0 3 -9 13 -20z"/>
        <path d="M6356 2105 c9 -14 21 -25 27 -25 6 0 0 11 -13 25 -13 14 -25 25 -27
25 -2 0 4 -11 13 -25z"/>
        <path d="M6325 2097 c10 -15 20 -25 23 -22 3 3 -5 16 -17 28 l-23 22 17 -28z"/>
        <path d="M6400 2106 c0 -2 8 -10 18 -17 15 -13 16 -12 3 4 -13 16 -21 21 -21
13z"/>
        <path d="M6290 2080 c0 -5 5 -10 11 -10 5 0 7 -5 4 -11 -4 -6 -13 -8 -20 -5
-9 3 -11 -2 -7 -17 l5 -22 -23 20 -23 20 14 -22 c7 -12 21 -21 30 -20 10 1 15
5 13 9 -3 4 0 8 6 8 6 0 8 5 5 10 -3 6 1 10 9 10 9 0 16 -4 16 -10 0 -5 5 -10
11 -10 6 0 0 13 -13 29 -24 31 -38 38 -38 21z"/>
        <path d="M6480 2032 c0 -5 9 -17 20 -27 11 -10 20 -14 20 -9 0 5 4 3 9 -5 5
-7 14 -12 21 -9 7 2 -6 16 -29 31 -22 15 -41 23 -41 19z"/>
        <path d="M6501 1977 c2 -1 13 -9 24 -17 19 -14 19 -14 6 3 -7 9 -18 17 -24 17
-6 0 -8 -1 -6 -3z"/>
        <path d="M6210 1935 c13 -14 26 -25 28 -25 3 0 -5 11 -18 25 -13 14 -26 25
-28 25 -3 0 5 -11 18 -25z"/>
        <path d="M6182 1914 c10 -10 20 -16 22 -13 3 3 -5 11 -17 18 -21 13 -21 12 -5
-5z"/>
        <path d="M6140 1814 c0 -8 5 -12 10 -9 6 4 8 11 5 16 -9 14 -15 11 -15 -7z"/>
        <path d="M4930 1440 c0 -5 5 -10 11 -10 5 0 7 5 4 10 -3 6 -8 10 -11 10 -2 0
-4 -4 -4 -10z"/>
        <path d="M5234 595 c5 -13 2 -16 -9 -11 -9 3 -27 -1 -40 -10 -13 -9 -30 -12
-37 -8 -10 5 -11 4 0 -7 15 -16 16 -33 2 -24 -6 4 -29 -8 -53 -26 -23 -17 -34
-29 -25 -26 12 4 16 1 15 -14 -1 -11 -7 -17 -14 -15 -9 4 -13 -4 -13 -24 0
-16 -5 -32 -10 -35 -6 -4 -8 -11 -4 -16 3 -5 2 -9 -3 -8 -16 4 -43 -13 -43
-28 0 -8 -4 -11 -10 -8 -5 3 -10 0 -10 -8 0 -8 -7 -17 -15 -21 -8 -3 -15 -13
-15 -22 0 -9 -7 -22 -16 -28 -21 -16 -22 -98 -1 -168 26 -85 31 -88 150 -88
90 0 105 2 120 20 9 11 17 25 17 30 0 6 5 10 11 10 5 0 7 4 4 10 -3 5 0 10 7
10 8 0 14 16 16 43 2 23 4 50 5 60 1 10 7 15 15 12 18 -7 4 16 -21 34 -10 7
-16 19 -14 25 3 7 -4 18 -15 25 -11 7 -17 18 -14 26 3 9 0 12 -10 8 -7 -3 -14
0 -14 6 0 6 5 11 12 11 6 0 9 3 6 6 -3 3 -15 0 -27 -8 -17 -10 -23 -10 -33 1
-8 9 -9 12 -1 7 6 -3 29 6 50 20 21 15 29 24 18 20 -17 -5 -16 -2 5 15 24 21
24 21 3 15 -14 -5 -23 -3 -23 3 0 6 5 11 12 11 6 0 8 3 5 6 -4 4 -13 1 -22 -6
-12 -10 -15 -10 -15 3 0 8 5 18 10 20 6 3 5 4 -2 3 -7 -1 -14 -12 -16 -24 -4
-29 -16 -28 -30 3 -9 20 -9 23 3 18 21 -8 18 3 -7 28 l-23 21 32 -16 c35 -17
65 -12 56 10 -3 8 0 14 6 14 6 0 8 7 5 15 -4 8 -1 15 6 15 7 0 6 6 -4 16 -31
30 -16 46 16 17 18 -16 18 -16 12 2 -6 15 -4 17 9 12 22 -8 21 -5 -5 17 -19
17 -20 17 -14 1z m-39 -46 c11 -16 1 -19 -13 -3 -7 8 -8 14 -3 14 5 0 13 -5
16 -11z m-52 -33 c4 -10 1 -13 -8 -9 -8 3 -12 9 -9 14 7 12 11 11 17 -5z m38
-30 c5 3 9 0 9 -6 0 -15 -23 -7 -26 8 -1 7 0 8 3 2 2 -5 9 -8 14 -4z m-51 -68
c0 -5 -9 -4 -20 2 -11 6 -20 12 -20 14 0 2 9 2 20 -1 11 -3 20 -9 20 -15z m24
-34 c11 -28 7 -34 -25 -34 -17 0 -28 -4 -24 -10 7 -11 -6 -13 -29 -4 -20 8
-21 24 -2 24 8 0 18 9 21 20 8 24 50 27 59 4z"/>
        <path d="M5470 599 c0 -5 5 -7 10 -4 6 3 10 8 10 11 0 2 -4 4 -10 4 -5 0 -10
-5 -10 -11z"/>
        <path d="M5472 569 c2 -7 -1 -20 -9 -27 -16 -17 -17 -42 0 -42 6 0 4 -5 -5
-11 -23 -13 -23 -45 -2 -53 9 -4 19 -4 22 -1 3 3 1 5 -5 5 -6 0 -14 7 -17 16
-3 8 -2 12 4 9 6 -3 10 1 10 9 0 9 5 16 11 16 6 0 3 7 -5 16 -21 21 -20 23 7
17 18 -4 19 -3 7 6 -11 8 -12 13 -4 19 9 5 7 11 -4 21 -13 12 -14 12 -10 0z"/>
        <path d="M6060 560 c8 -5 20 -10 25 -10 6 0 3 5 -5 10 -8 5 -19 10 -25 10 -5
0 -3 -5 5 -10z"/>
        <path d="M5410 540 c0 -5 5 -10 11 -10 5 0 7 5 4 10 -3 6 -8 10 -11 10 -2 0
-4 -4 -4 -10z"/>
        <path d="M5397 509 c4 -13 8 -18 11 -10 2 7 -1 18 -6 23 -8 8 -9 4 -5 -13z"/>
        <path d="M6325 510 c-3 -6 1 -7 9 -4 18 7 21 14 7 14 -6 0 -13 -4 -16 -10z"/>
        <path d="M3960 496 c0 -2 8 -10 18 -17 15 -13 16 -12 3 4 -13 16 -21 21 -21
13z"/>
        <path d="M5365 490 c-3 -6 1 -7 9 -4 18 7 21 14 7 14 -6 0 -13 -4 -16 -10z"/>
        <path d="M5944 475 c11 -8 22 -12 25 -9 6 6 -19 24 -34 24 -5 -1 -1 -7 9 -15z"/>
        <path d="M5894 441 c3 -5 16 -11 28 -14 22 -6 22 -5 4 8 -22 17 -40 20 -32 6z"/>
        <path d="M5430 426 c0 -3 15 -15 33 -27 l32 -23 -24 27 c-22 24 -41 35 -41 23z"/>
        <path d="M5380 400 c-9 -6 -10 -10 -3 -10 6 0 15 5 18 10 8 12 4 12 -15 0z"/>
        <path d="M5430 377 c0 -14 7 -28 18 -32 14 -5 15 -4 5 6 -21 21 -15 33 7 14
11 -10 22 -16 24 -14 2 2 -10 14 -25 27 l-29 24 0 -25z"/>
        <path d="M5505 360 c3 -5 8 -10 11 -10 2 0 4 5 4 10 0 6 -5 10 -11 10 -5 0 -7
-4 -4 -10z"/>
        <path d="M5416 302 c-8 -53 -7 -132 2 -132 5 0 7 20 6 45 -2 29 2 45 9 45 7 0
6 5 -3 11 -11 7 -12 12 -3 15 7 3 9 12 6 20 -4 10 0 12 11 8 22 -9 20 3 -3 15
-16 9 -19 6 -25 -27z"/>
        <path d="M5770 300 c8 -5 20 -10 25 -10 6 0 3 5 -5 10 -8 5 -19 10 -25 10 -5
0 -3 -5 5 -10z"/>
        <path d="M4527 289 c7 -7 15 -10 18 -7 3 3 -2 9 -12 12 -14 6 -15 5 -6 -5z"/>
        <path d="M5685 290 c3 -5 11 -10 16 -10 6 0 7 5 4 10 -3 6 -11 10 -16 10 -6 0
-7 -4 -4 -10z"/>
        <path d="M3980 111 c0 -5 7 -12 16 -15 24 -9 28 -7 14 9 -14 17 -30 20 -30 6z"/>
    </g>
</svg>
